<svg id="svg" version="1.1" viewBox="0 0 300 200" width="300" height="200" xmlns="http://www.w3.org/2000/svg"><defs><clipPath id="clip-1"><rect x="0" y="0" transform="scale(0.14648,0.14652)" width="2048" height="1365" fill="none"/></clipPath><linearGradient x1="159.86133" y1="119.53377" x2="154.76807" y2="104.85275" gradientUnits="userSpaceOnUse" id="color-1"><stop offset="0" stop-color="#269ee7"/><stop offset="1" stop-color="#5adaff"/></linearGradient><linearGradient x1="167.31445" y1="150.70623" x2="157.08545" y2="113.3178" gradientUnits="userSpaceOnUse" id="color-2"><stop offset="0" stop-color="#002891"/><stop offset="1" stop-color="#2bb0fa"/></linearGradient><linearGradient x1="158.43164" y1="107.04454" x2="149.37451" y2="63.90916" gradientUnits="userSpaceOnUse" id="color-3"><stop offset="0" stop-color="#d8e3ec"/><stop offset="1" stop-color="#ffffff"/></linearGradient><linearGradient x1="112.20176" y1="79.24249" x2="101.7375" y2="72.01685" gradientUnits="userSpaceOnUse" id="color-4"><stop offset="0" stop-color="#0e62bf"/><stop offset="1" stop-color="#37bbff"/></linearGradient><linearGradient x1="116.58354" y1="67.9452" x2="118.81699" y2="69.76879" gradientUnits="userSpaceOnUse" id="color-5"><stop offset="0" stop-color="#1368bb"/><stop offset="1" stop-color="#054295"/></linearGradient><linearGradient x1="146.87988" y1="67.84703" x2="145.79312" y2="55.38579" gradientUnits="userSpaceOnUse" id="color-6"><stop offset="0" stop-color="#2687d3"/><stop offset="1" stop-color="#45b6f9"/></linearGradient><linearGradient x1="130.52021" y1="60.9959" x2="126.54712" y2="52.36352" gradientUnits="userSpaceOnUse" id="color-7"><stop offset="0" stop-color="#41b4ef"/><stop offset="1" stop-color="#5ed7fc"/></linearGradient><linearGradient x1="199.87207" y1="83.18139" x2="208.00342" y2="78.99516" gradientUnits="userSpaceOnUse" id="color-8"><stop offset="0" stop-color="#003196"/><stop offset="1" stop-color="#1a8ef7"/></linearGradient><linearGradient x1="171.25635" y1="104.83751" x2="167.31885" y2="91.40117" gradientUnits="userSpaceOnUse" id="color-9"><stop offset="0" stop-color="#006ca7"/><stop offset="1" stop-color="#17d8cf"/></linearGradient><linearGradient x1="146.63965" y1="107.21509" x2="142.45913" y2="89.94711" gradientUnits="userSpaceOnUse" id="color-10"><stop offset="0" stop-color="#1594eb"/><stop offset="1" stop-color="#5eeaff"/></linearGradient><linearGradient x1="167.81104" y1="82.01114" x2="172.15869" y2="91.97392" gradientUnits="userSpaceOnUse" id="color-11"><stop offset="0" stop-color="#55fcd8"/><stop offset="1" stop-color="#1fccc1"/></linearGradient><linearGradient x1="166.51611" y1="105.57656" x2="166.00342" y2="102.2674" gradientUnits="userSpaceOnUse" id="color-12"><stop offset="0" stop-color="#005d98"/><stop offset="1" stop-color="#0077a9"/></linearGradient><linearGradient x1="162.43506" y1="113.54974" x2="156.97852" y2="97.05363" gradientUnits="userSpaceOnUse" id="color-13"><stop offset="0" stop-color="#7cdffd"/><stop offset="1" stop-color="#c3fefe"/></linearGradient><linearGradient x1="156.1626" y1="152.39121" x2="155.53125" y2="139.12234" gradientUnits="userSpaceOnUse" id="color-14"><stop offset="0" stop-color="#1b3558" stop-opacity="0"/><stop offset="1" stop-color="#42648b" stop-opacity="0.03922"/></linearGradient><linearGradient x1="140.64609" y1="90.65993" x2="127.65439" y2="79.69333" gradientUnits="userSpaceOnUse" id="color-15"><stop offset="0" stop-color="#ff9f00"/><stop offset="1" stop-color="#ffe260"/></linearGradient></defs><g clip-path="url(#clip-1)" fill="none" fill-rule="nonzero" stroke="none" stroke-width="1" stroke-linecap="butt" stroke-linejoin="miter" stroke-miterlimit="10" stroke-dasharray="" stroke-dashoffset="0" font-weight="normal" style="mix-blend-mode: normal"><path d="M119.61797,63.92029c0.34614,-2.463 1.11694,-8.63209 3.0832,-9.89846c2.26055,-1.45597 8.27329,-0.3515 10.88496,0.09714c3.05552,0.52513 6.36548,1.0126 9.31187,1.70125c1.67227,0.10637 5.70308,0.98989 7.47847,1.34212c5.81104,1.1219 11.58545,2.41861 17.31738,3.8885c2.24854,0.5748 6.76025,1.76557 8.72168,2.68029c5.92236,-0.07546 14.19434,-2.9767 19.62012,-0.58813c2.58398,2.21333 2.1416,5.36733 2.30273,8.56747c2.86816,0.49436 6.30615,1.1178 8.60449,3.06418c3.27832,3.13582 1.81641,7.80513 1.23779,11.90432c-0.24609,1.94491 -0.79541,7.15136 -1.23779,8.92733c-0.10107,1.24029 -0.37939,2.4841 -0.46729,3.64117l0.45996,0.25436c2.80371,1.57128 3.7251,3.36 2.95313,6.54227c-1.11621,4.60454 -2.50049,9.13275 -3.76172,13.69963c-1.1499,4.2422 -2.32178,8.47853 -3.51562,12.70857c-1.11768,3.92879 -1.40039,6.53729 -4.40918,9.47883l-1.0166,0.71604c-0.68262,0.31956 -1.36377,0.64322 -2.04346,0.97099c-1.15576,0.22725 -2.27051,0.47297 -3.44678,0.56498c-1.14258,-0.1241 -4.70947,0.00513 -6.03223,0.01421l-12.10254,0.01993l-42.10547,-0.05714c-5.2311,0.00498 -15.57261,0.40674 -20.29497,-0.88425l-0.57993,-0.22652c-0.46084,-0.30593 -0.82383,-0.5622 -1.32642,-0.80366l-0.45527,-0.59399c-1.95762,-2.23062 -1.95586,-4.91179 -2.18496,-7.78681c-0.18149,-0.82593 -0.5228,-4.69348 -0.62212,-5.69128l-1.18813,-12.09509l-1.74858,-17.38212c-0.25752,-2.60703 -0.76816,-6.55018 -0.83145,-9.07824c-0.31934,-0.94125 -0.56426,-5.34418 -0.68437,-6.57905c-1.24233,-12.77758 -4.31045,-18.44015 12.18516,-19.15824c2.21279,-0.11121 3.68892,-0.16894 5.89395,0.03941zM143.23301,84.80176c0.00908,5.3222 -3.89443,8.96044 -9.22163,8.99341c-1.41079,0.00879 -3.36387,-0.43385 -4.53691,-1.25978c-2.19316,-0.81084 -3.76509,-4.03678 -3.96211,-6.23897c-0.24741,-2.7641 0.42832,-4.82842 2.13325,-6.97524c2.80562,-2.77421 5.47266,-3.13641 9.19673,-2.28015c3.81504,1.4444 5.92822,3.55473 6.39067,7.76073zM143.14043,92.87575c1.52754,-1.87604 4.93037,-5.8674 7.54658,-5.74183c1.08545,0.05216 2.8623,0.8926 3.58154,1.68762c1.48096,0.83282 3.92139,3.01656 5.12109,4.25612c0.58154,-0.29377 1.50146,-1.74945 2.04785,-2.29949c4.33594,-4.36029 7.72705,-14.34286 15.37207,-9.11736c2.78906,1.90681 6.09521,4.41363 8.20313,6.81099c2.01855,1.55824 4.19531,4.46623 6.02344,6.21011c0.74707,0.85392 2.85352,3.78051 3.59473,4.09978l0.0498,0.10623c2.13867,-0.05143 4.27881,-0.08176 6.41748,-0.09099c1.42969,0.01407 2.59717,0.03839 4.01953,0.16015c0.38086,0.12733 0.84229,0.26711 1.20996,0.40821l0.14795,-0.1178c0.08789,-1.15707 0.36621,-2.40088 0.46729,-3.64117c0.44238,-1.77597 0.9917,-6.98242 1.23779,-8.92733c0.57861,-4.09919 2.04053,-8.7685 -1.23779,-11.90432c-2.29834,-1.94637 -5.73633,-2.56982 -8.60449,-3.06418c-0.16113,-3.20015 0.28125,-6.35414 -2.30273,-8.56747c-5.42578,-2.38857 -13.69775,0.51267 -19.62012,0.58813c-1.96143,-0.91473 -6.47314,-2.10549 -8.72168,-2.68029c-5.73193,-1.46989 -11.50635,-2.76659 -17.31738,-3.8885c-1.77539,-0.35223 -5.8062,-1.23575 -7.47847,-1.34212c-2.94639,-0.68864 -6.25635,-1.17612 -9.31187,-1.70125c-2.61167,-0.44864 -8.62441,-1.55311 -10.88496,-0.09714c-1.96626,1.26637 -2.73706,7.43546 -3.0832,9.89846c-2.20503,-0.20835 -3.68115,-0.15062 -5.89395,-0.03941c-16.49561,0.7181 -13.42749,6.38066 -12.18516,19.15824c0.12012,1.23487 0.36504,5.6378 0.68437,6.57905c0.06328,2.52806 0.57393,6.47121 0.83145,9.07824l1.74858,17.38212l1.18813,12.09509c0.09932,0.9978 0.44063,4.86535 0.62212,5.69128c0.2291,2.87502 0.22734,5.55619 2.18496,7.78681l0.22295,-0.20718c0.08438,-0.79429 0.42759,-3.15766 0.71616,-3.82256l0.04731,-0.1263c-0.35142,-0.58491 -0.50552,-0.84762 -0.76348,-1.47853c0.44033,-1.78125 1.32891,-3.35136 1.91689,-5.01011c0.92988,-2.62374 2.43984,-7.18901 2.7958,-9.88908c0.10942,-0.17231 0.66621,-2.24615 0.82046,-2.68894c0.00674,-0.81128 1.04282,-4.70916 1.29946,-5.64718c0.05596,-0.25377 0.23789,-0.71223 0.33135,-0.97187c0.31333,-0.43062 1.95439,-2.30256 2.02266,-2.44234c1.91294,-2.03311 9.58989,-1.84557 12.43213,-1.8633c0.56294,-0.90051 2.43706,-3.07575 3.20522,-4.02886c2.11245,-2.57714 4.27236,-5.11502 6.47842,-7.61245c0.72832,-0.81407 2.05532,-2.34022 2.8166,-2.98725zM193.98193,91.75692c-0.00586,0.38168 -0.02637,0.37099 -0.22559,0.67897l-0.25195,-0.11165c-0.375,-0.67839 -0.32373,-0.8844 -0.28564,-1.65421c0.22705,0.33304 0.51416,0.78432 0.76318,1.08689z" fill="url(#color-1)"/><path d="M206.93555,99.50183c2.80371,1.57128 3.7251,3.36 2.95313,6.54227c-1.11621,4.60454 -2.50049,9.13275 -3.76172,13.69963c-1.1499,4.2422 -2.32178,8.47853 -3.51562,12.70857c-1.11768,3.92879 -1.40039,6.53729 -4.40918,9.47883l-1.0166,0.71604c-0.68262,0.31956 -1.36377,0.64322 -2.04346,0.97099c-1.15576,0.22725 -2.27051,0.47297 -3.44678,0.56498c-1.14258,-0.1241 -4.70947,0.00513 -6.03223,0.01421l-12.10254,0.01993l-42.10547,-0.05714c-5.2311,0.00498 -15.57261,0.40674 -20.29497,-0.88425l-0.57993,-0.22652c-0.46084,-0.30593 -0.82383,-0.5622 -1.32642,-0.80366l-0.45527,-0.59399l0.22295,-0.20718c0.08438,-0.79429 0.42759,-3.15766 0.71616,-3.82256c0.64307,1.08659 2.28677,2.52527 3.5376,2.46652c-0.35742,-0.62315 -4.33901,-1.11766 -2.66807,-3.11678c0.40737,-0.48747 0.84229,-1.33275 1.15532,-1.90403c4.26533,-2.33685 10.11899,-3.36484 14.77119,-4.75883c6.84331,-2.05055 13.73613,-4.27326 20.47368,-6.62432l17.88281,-6.34711c3.40576,-1.1874 7.01074,-1.84322 10.34033,-3.03853c4.08545,-1.89143 9.0498,-2.73158 13.06641,-4.62125c5.40967,-2.54593 11.18994,-3.71853 16.4707,-6.40264c1.17041,-0.59502 1.53076,-3.06755 2.16797,-3.77319z" fill="url(#color-2)"/><path d="M119.61797,63.92029c0.34614,-2.463 1.11694,-8.63209 3.0832,-9.89846c2.26055,-1.45597 8.27329,-0.3515 10.88496,0.09714c3.05552,0.52513 6.36548,1.0126 9.31187,1.70125c1.67227,0.10637 5.70308,0.98989 7.47847,1.34212c5.81104,1.1219 11.58545,2.41861 17.31738,3.8885c2.24854,0.5748 6.76025,1.76557 8.72168,2.68029c5.92236,-0.07546 14.19434,-2.9767 19.62012,-0.58813c2.58398,2.21333 2.1416,5.36733 2.30273,8.56747c2.86816,0.49436 6.30615,1.1178 8.60449,3.06418c3.27832,3.13582 1.81641,7.80513 1.23779,11.90432c-0.24609,1.94491 -0.79541,7.15136 -1.23779,8.92733c-0.10107,1.24029 -0.37939,2.4841 -0.46729,3.64117l-0.14795,0.1178c-0.36768,-0.1411 -0.8291,-0.28088 -1.20996,-0.40821c-1.42236,-0.12176 -2.58984,-0.14608 -4.01953,-0.16015c-2.13867,0.00923 -4.27881,0.03956 -6.41748,0.09099l-0.0498,-0.10623c-0.12744,-1.51751 -0.28711,-3.10242 -0.27539,-4.61934c-0.16406,-0.41509 -0.21387,-1.92073 -0.24902,-2.44982l-1.17627,-13.48454c-0.20654,-2.54886 -0.37646,-5.06051 -0.68408,-7.6211c-0.45996,-3.82418 -3.24023,-3.37128 -6.24023,-3.12806c-4.28174,0.45919 -8.6748,1.09905 -13.01074,1.65538l-24.82031,3.09304c-6.71997,0.7578 -13.43496,1.56454 -20.14365,2.42051c-3.42979,0.40308 -6.86572,0.74374 -10.29053,1.2019c-1.62744,0.21773 -2.9061,1.257 -2.90244,2.9956c0.00322,1.62828 0.23086,3.31766 0.40854,4.94154l0.91289,8.15736l1.21362,10.85612c0.21724,1.92527 0.39346,4.75062 0.83481,6.56733c-0.06826,0.13978 -1.70933,2.01172 -2.02266,2.44234c-0.09346,0.25963 -0.27539,0.7181 -0.33135,0.97187c-0.25664,0.93802 -1.29272,4.8359 -1.29946,5.64718c-0.15425,0.44278 -0.71104,2.51663 -0.82046,2.68894c-0.35596,2.70007 -1.86592,7.26535 -2.7958,9.88908c-0.58799,1.65875 -1.47656,3.22886 -1.91689,5.01011c0.25796,0.63092 0.41206,0.89363 0.76348,1.47853l-0.04731,0.1263c-0.28857,0.66491 -0.63179,3.02828 -0.71616,3.82256l-0.22295,0.20718c-1.95762,-2.23062 -1.95586,-4.91179 -2.18496,-7.78681c-0.18149,-0.82593 -0.5228,-4.69348 -0.62212,-5.69128l-1.18813,-12.09509l-1.74858,-17.38212c-0.25752,-2.60703 -0.76816,-6.55018 -0.83145,-9.07824c-0.31934,-0.94125 -0.56426,-5.34418 -0.68437,-6.57905c-1.24233,-12.77758 -4.31045,-18.44015 12.18516,-19.15824c2.21279,-0.11121 3.68892,-0.16894 5.89395,0.03941zM127.40874,69.69275c8.57578,-0.95282 17.14336,-1.977 25.70259,-3.07238c4.38721,-0.54125 9.99609,-1.02403 14.21631,-1.72381c0.34277,0.01084 0.75732,-0.06256 1.10596,-0.10711l2.69385,-0.39253c-1.37842,-0.79575 -21.36182,-3.64777 -24.00439,-4.02359c-4.52944,-0.67516 -8.9915,-1.36674 -13.46396,-1.72615c-5.70278,-0.45832 -7.32056,1.65978 -7.93989,7.00996c-0.07207,0.62286 -0.3063,1.29143 -0.39624,1.91487c-0.10063,0.74403 -0.19365,1.48894 -0.27905,2.23487l0.16758,0.15297c0.69932,-0.05963 1.49268,-0.17788 2.19727,-0.26711z" fill="url(#color-3)"/><path d="M102.22324,89.61817c-0.31934,-0.94125 -0.56426,-5.34418 -0.68437,-6.57905c-1.24233,-12.77758 -4.31045,-18.44015 12.18516,-19.15824l0.02212,0.19692c1.40991,0.02828 3.01362,0.02154 4.4061,0.09451l0.0624,0.26799l0.11001,-0.25216l0.02842,0.19297l0.04614,-0.03531l-0.87993,0.14051c0.77637,0.53451 1.46455,-0.19634 1.95659,-0.11692l-0.01523,0.52645c-0.08364,0.61524 -0.22046,1.44513 -0.24961,2.04513c-0.29385,0.87751 -0.34233,3.39546 -0.57979,3.76879c-1.15254,0.12396 -2.59263,0.31956 -3.72671,0.39048c-7.66494,0.96806 -5.95693,4.96117 -5.42783,11.12132c0.10796,1.25788 0.27817,2.53832 0.40195,3.79516c0.75454,8.01744 1.80659,16.03868 2.67217,24.04718c0.07939,0.73451 0.21123,1.52132 0.25576,2.25319c0.39126,0.69333 0.37983,1.68952 0.54551,2.5411l0.45615,0.10154c1.66978,-0.46154 1.2668,-2.39267 2.37715,-3.14974c-0.09346,0.25963 -0.27539,0.7181 -0.33135,0.97187c-0.25664,0.93802 -1.29272,4.8359 -1.29946,5.64718c-0.15425,0.44278 -0.71104,2.51663 -0.82046,2.68894c-0.35596,2.70007 -1.86592,7.26535 -2.7958,9.88908c-0.58799,1.65875 -1.47656,3.22886 -1.91689,5.01011c0.25796,0.63092 0.41206,0.89363 0.76348,1.47853l-0.04731,0.1263c-0.28857,0.66491 -0.63179,3.02828 -0.71616,3.82256l-0.22295,0.20718c-1.95762,-2.23062 -1.95586,-4.91179 -2.18496,-7.78681c-0.18149,-0.82593 -0.5228,-4.69348 -0.62212,-5.69128l-1.18813,-12.09509l-1.74858,-17.38212c-0.25752,-2.60703 -0.76816,-6.55018 -0.83145,-9.07824z" fill="#11408b"/><path d="M102.22324,89.61817c-0.31934,-0.94125 -0.56426,-5.34418 -0.68437,-6.57905c-1.24233,-12.77758 -4.31045,-18.44015 12.18516,-19.15824l0.02212,0.19692c1.40991,0.02828 3.01362,0.02154 4.4061,0.09451l0.0624,0.26799l0.11001,-0.25216l0.02842,0.19297l0.04614,-0.03531l-0.87993,0.14051c0.77637,0.53451 1.46455,-0.19634 1.95659,-0.11692l-0.01523,0.52645c-0.08364,0.61524 -0.22046,1.44513 -0.24961,2.04513c-0.29385,0.87751 -0.34233,3.39546 -0.57979,3.76879c-1.15254,0.12396 -2.59263,0.31956 -3.72671,0.39048c-7.66494,0.96806 -5.95693,4.96117 -5.42783,11.12132c0.10796,1.25788 0.27817,2.53832 0.40195,3.79516l-0.22061,0.33978l-0.15483,-0.137c0.21724,-2.43341 -1.05029,-7.54286 -0.84756,-9.65436c-1.00928,0.53612 -3.74766,12.8548 -4.23516,14.65509c-0.16392,0.60542 0.52148,4.06725 0.30967,5.4c-0.66519,-4.84293 -0.92974,-10.0507 -1.4978,-14.92879c-0.11616,-0.99824 -0.37969,-5.08791 -0.65625,-5.73172c-0.28652,-0.15092 -0.4752,-0.55165 -0.65449,-0.84777c-0.72495,3.41158 0.18281,8.80645 0.42729,12.36615c0.0709,1.03355 0.42949,2.79326 0.3854,3.68293l-0.10298,-0.02886c-0.10825,-0.5748 -0.15308,-0.98256 -0.40811,-1.51399z" fill="url(#color-4)"/><path d="M102.22324,89.61817c-0.31934,-0.94125 -0.56426,-5.34418 -0.68437,-6.57905c-1.24233,-12.77758 -4.31045,-18.44015 12.18516,-19.15824l0.02212,0.19692c1.40991,0.02828 3.01362,0.02154 4.4061,0.09451l0.0624,0.26799l0.11001,-0.25216l0.02842,0.19297l0.04614,-0.03531l-0.87993,0.14051c-0.46333,0.03414 -2.14307,0.2167 -2.48643,0.11634c-4.10845,0.69744 -10.98223,1.55516 -12.34468,6.4126c-0.34687,1.23648 -0.2729,3.62637 -0.11206,4.94447c-0.28652,-0.15092 -0.4752,-0.55165 -0.65449,-0.84777c-0.72495,3.41158 0.18281,8.80645 0.42729,12.36615c0.0709,1.03355 0.42949,2.79326 0.3854,3.68293l-0.10298,-0.02886c-0.10825,-0.5748 -0.15308,-0.98256 -0.40811,-1.51399z" fill="#48c6fd"/><path d="M113.68315,64.19341c0.62183,0.02403 0.97207,-0.11897 1.34971,0.40923c-4.10845,0.69744 -10.98223,1.55516 -12.34468,6.4126c-0.34687,1.23648 -0.2729,3.62637 -0.11206,4.94447c-0.28652,-0.15092 -0.4752,-0.55165 -0.65449,-0.84777c0.22881,-0.85758 -0.22324,-1.98256 -0.26191,-2.91092c-0.25591,-6.1619 7.51055,-7.60806 12.02344,-8.00762z" fill="#6fdbfb"/><path d="M114.90454,71.10022l-0.97661,-0.1326c0.54814,-0.2822 1.2876,-0.06315 1.60635,-0.31033c1.24277,-0.96308 0.19556,-1.27502 0.45469,-2.08352c0.1147,-0.3578 0.57114,-0.52894 0.74868,-1.10198l-0.31025,-0.13026c0.34131,-0.48454 2.3688,-1.89114 3.03325,-2.44571c-0.08364,0.61524 -0.22046,1.44513 -0.24961,2.04513c-0.29385,0.87751 -0.34233,3.39546 -0.57979,3.76879c-1.15254,0.12396 -2.59263,0.31956 -3.72671,0.39048z" fill="url(#color-5)"/><path d="M101.92163,75.11194c0.1793,0.29612 0.36797,0.69685 0.65449,0.84777c0.27656,0.64381 0.54009,4.73348 0.65625,5.73172c0.56807,4.8781 0.83262,10.08586 1.4978,14.92879c0.54272,8.28791 1.83779,17.00264 2.59336,25.30505c0.26865,2.95238 1.02759,7.51018 1.09644,10.26813c0.28799,0.96718 0.25928,2.84088 0.51167,3.96484l0.08979,-0.1411c0.25796,0.63092 0.41206,0.89363 0.76348,1.47853l-0.04731,0.1263c-0.28857,0.66491 -0.63179,3.02828 -0.71616,3.82256l-0.22295,0.20718c-1.95762,-2.23062 -1.95586,-4.91179 -2.18496,-7.78681c-0.18149,-0.82593 -0.5228,-4.69348 -0.62212,-5.69128l-1.18813,-12.09509l-1.74858,-17.38212c-0.25752,-2.60703 -0.76816,-6.55018 -0.83145,-9.07824c0.25503,0.53143 0.29985,0.93919 0.40811,1.51399l0.10298,0.02886c0.04409,-0.88967 -0.3145,-2.64938 -0.3854,-3.68293c-0.24448,-3.55971 -1.15225,-8.95458 -0.42729,-12.36615z" fill="#33adf4"/><path d="M106.61353,133.86491c0.90703,1.24132 0.32344,3.50681 1.03828,4.97802c1.48696,-0.37348 0.69053,-5.35795 0.58623,-6.44835l0.18193,-0.20117c0.28799,0.96718 0.25928,2.84088 0.51167,3.96484l0.08979,-0.1411c0.25796,0.63092 0.41206,0.89363 0.76348,1.47853l-0.04731,0.1263c-0.28857,0.66491 -0.63179,3.02828 -0.71616,3.82256l-0.22295,0.20718c-1.95762,-2.23062 -1.95586,-4.91179 -2.18496,-7.78681z" fill="#2b98ea"/><path d="M112.80659,112.31707c0.39126,0.69333 0.37983,1.68952 0.54551,2.5411l0.45615,0.10154c1.66978,-0.46154 1.2668,-2.39267 2.37715,-3.14974c-0.09346,0.25963 -0.27539,0.7181 -0.33135,0.97187c-0.25664,0.93802 -1.29272,4.8359 -1.29946,5.64718c-0.15425,0.44278 -0.71104,2.51663 -0.82046,2.68894c-0.18091,-2.68293 -0.63706,-6.05832 -0.92754,-8.80088z" fill="#b1c3d5"/><path d="M119.61797,63.92029c0.34614,-2.463 1.11694,-8.63209 3.0832,-9.89846c2.26055,-1.45597 8.27329,-0.3515 10.88496,0.09714c3.05552,0.52513 6.36548,1.0126 9.31187,1.70125c1.67227,0.10637 5.70308,0.98989 7.47847,1.34212c5.81104,1.1219 11.58545,2.41861 17.31738,3.8885c2.24854,0.5748 6.76025,1.76557 8.72168,2.68029c-1.39746,0.30066 -4.35937,0.40337 -5.28809,0.66579c-1.37842,-0.79575 -21.36182,-3.64777 -24.00439,-4.02359c-4.52944,-0.67516 -8.9915,-1.36674 -13.46396,-1.72615c-5.70278,-0.45832 -7.32056,1.65978 -7.93989,7.00996c-0.07207,0.62286 -0.3063,1.29143 -0.39624,1.91487c-0.10063,0.74403 -0.19365,1.48894 -0.27905,2.23487l0.16758,0.15297c-1.99468,0.32498 -4.51113,0.49832 -6.58022,0.74989c0.23745,-0.37333 0.28594,-2.89128 0.57979,-3.76879c0.02915,-0.6 0.16597,-1.42989 0.24961,-2.04513l0.01523,-0.52645c-0.49204,-0.07941 -1.18022,0.65143 -1.95659,0.11692l0.87993,-0.14051l-0.04614,0.03531l-0.02842,-0.19297l-0.11001,0.25216l-0.0624,-0.26799c-1.39248,-0.07297 -2.99619,-0.06623 -4.4061,-0.09451l-0.02212,-0.19692c2.21279,-0.11121 3.68892,-0.16894 5.89395,0.03941z" fill="url(#color-6)"/><path d="M119.61797,63.92029c0.34614,-2.463 1.11694,-8.63209 3.0832,-9.89846c2.26055,-1.45597 8.27329,-0.3515 10.88496,0.09714c3.05552,0.52513 6.36548,1.0126 9.31187,1.70125c-0.56338,0.04923 -1.77378,-0.00381 -2.05767,0.21201l-0.1938,0.45348c-2.26904,0.70828 -7.4146,0.27604 -9.84873,0.27619c-6.28535,0.00029 -8.34976,4.14462 -11.17148,8.86886c-0.17651,0.28894 -0.27305,0.95194 -0.41528,1.31018c0.02915,-0.6 0.16597,-1.42989 0.24961,-2.04513l0.01523,-0.52645c-0.49204,-0.07941 -1.18022,0.65143 -1.95659,0.11692l0.87993,-0.14051l-0.04614,0.03531l-0.02842,-0.19297l-0.11001,0.25216l-0.0624,-0.26799c-1.39248,-0.07297 -2.99619,-0.06623 -4.4061,-0.09451l-0.02212,-0.19692c2.21279,-0.11121 3.68892,-0.16894 5.89395,0.03941z" fill="url(#color-7)"/><path d="M198.33838,71.71048c2.86816,0.49436 6.30615,1.1178 8.60449,3.06418c3.27832,3.13582 1.81641,7.80513 1.23779,11.90432c-0.24609,1.94491 -0.79541,7.15136 -1.23779,8.92733c-0.10107,1.24029 -0.37939,2.4841 -0.46729,3.64117l-0.14795,0.1178c-0.36768,-0.1411 -0.8291,-0.28088 -1.20996,-0.40821c-1.42236,-0.12176 -2.58984,-0.14608 -4.01953,-0.16015c-0.11719,-1.06432 -0.21387,-2.0967 -0.4292,-3.14725c-0.01172,-1.24982 -0.58154,-5.34681 -0.74121,-6.71678c-0.5083,-4.12894 -0.94189,-8.26667 -1.30225,-12.41099l0.01611,-0.88073c-0.15234,-0.5915 -0.22412,-2.34066 -0.26514,-3.03927z" fill="url(#color-8)"/><path d="M198.37646,72.6019c0.98438,1.51546 2.81982,2.36161 2.73193,3.92249l-0.20068,0.30037c0.74414,1.46725 2.39209,5.74198 2.58398,7.33158c0.31055,2.55795 -0.44092,4.82037 0.45703,7.5074c0.12012,-0.2211 0.15234,-0.31839 0.33838,-0.48982c0.18457,0.46916 0.13916,0.37407 0.21533,0.77201c0.09082,0.47194 0.76904,1.33055 1.08105,1.86608c0.01025,1.06125 0.03955,1.66813 0.1626,2.72835l0.09668,0.01319c0.26514,-1.07868 0.34424,-2.05905 0.58154,-3.05465c0.78223,0.34725 0.20068,1.27766 0.51855,2.1074c-0.10107,1.24029 -0.37939,2.4841 -0.46729,3.64117l-0.14795,0.1178c-0.36768,-0.1411 -0.8291,-0.28088 -1.20996,-0.40821c-1.42236,-0.12176 -2.58984,-0.14608 -4.01953,-0.16015c-0.11719,-1.06432 -0.21387,-2.0967 -0.4292,-3.14725c-0.01172,-1.24982 -0.58154,-5.34681 -0.74121,-6.71678c-0.5083,-4.12894 -0.94189,-8.26667 -1.30225,-12.41099l0.01611,-0.88073c-0.15234,-0.5915 -0.22412,-2.34066 -0.26514,-3.03927z" fill="#11408b"/><path d="M198.37646,72.6019c0.98438,1.51546 2.81982,2.36161 2.73193,3.92249l-0.20068,0.30037c-0.11426,0.863 0.05127,0.82813 0.00586,1.54872l-0.15088,0.07238c-0.67676,-1.09275 -0.72656,-3.84234 -2.01709,-3.96527c0.03076,0.47414 0.01758,0.57201 -0.0791,1.04234l-0.0249,0.11824c-0.15234,-0.5915 -0.22412,-2.34066 -0.26514,-3.03927z" fill="#0655b5"/><path d="M206.28662,76.92425c-0.14355,-0.43604 -0.39844,-1.57026 -0.1875,-1.94315l0.11279,-0.01143l0.68408,0.60586l0.04688,-0.80088c3.27832,3.13582 1.81641,7.80513 1.23779,11.90432c-0.24609,1.94491 -0.79541,7.15136 -1.23779,8.92733c-0.31787,-0.82974 0.26367,-1.76015 -0.51855,-2.1074c-0.2373,0.9956 -0.31641,1.97597 -0.58154,3.05465l-0.09668,-0.01319c-0.12305,-1.06022 -0.15234,-1.66711 -0.1626,-2.72835c0.21094,-0.64308 0.27832,-5.84044 0.34863,-6.97319c0.1377,-2.23531 0.27832,-4.82447 0.42041,-7.10095c0.03662,-0.59048 -0.1084,-1.94198 -0.06592,-2.81363z" fill="#0655b5"/><path d="M206.28662,76.92425c0.8833,2.38125 0.95508,4.40205 0.83203,6.90359c-0.0249,0.51194 -0.09961,1.88 -0.04687,2.30901l0.3457,0.06725c-0.16406,1.35004 -0.97852,6.42579 -0.99316,7.2948c-0.2373,0.9956 -0.31641,1.97597 -0.58154,3.05465l-0.09668,-0.01319c-0.12305,-1.06022 -0.15234,-1.66711 -0.1626,-2.72835c0.21094,-0.64308 0.27832,-5.84044 0.34863,-6.97319c0.1377,-2.23531 0.27832,-4.82447 0.42041,-7.10095c0.03662,-0.59048 -0.1084,-1.94198 -0.06592,-2.81363z" fill="#1581e7"/><path d="M206.28662,76.92425c-0.14355,-0.43604 -0.39844,-1.57026 -0.1875,-1.94315l0.11279,-0.01143l0.68408,0.60586c2.19727,3.33817 0.50977,7.11443 0.52148,10.62857l-0.3457,-0.06725c-0.05273,-0.42901 0.02197,-1.79707 0.04688,-2.30901c0.12305,-2.50154 0.05127,-4.52234 -0.83203,-6.90359z" fill="#2b98ea"/><path d="M207.41748,86.2041l0.19922,0.2441c-0.0791,0.80249 -0.40576,3.06256 -0.30029,3.68132l0.20947,0.09993c0.25049,-0.27678 0.25635,-0.40029 0.20361,-0.87663c-0.09521,-0.8819 -0.01758,-1.44821 0.05713,-2.31985l0.39404,-0.35399c-0.24609,1.94491 -0.79541,7.15136 -1.23779,8.92733c-0.31787,-0.82974 0.26367,-1.76015 -0.51855,-2.1074c0.01465,-0.86901 0.8291,-5.94476 0.99316,-7.2948z" fill="#11408b"/><path d="M194.35547,94.16234c0.49805,0.64498 0.42334,1.14007 0.39404,1.94462c2.64697,1.38842 3.3999,0.90418 5.99561,2.1304c0.21094,-0.55179 -0.54785,-1.75883 -0.07617,-2.58769c0.21533,1.05055 0.31201,2.08293 0.4292,3.14725c-2.13867,0.00923 -4.27881,0.03956 -6.41748,0.09099l-0.0498,-0.10623c-0.12744,-1.51751 -0.28711,-3.10242 -0.27539,-4.61934z" fill="#b1c3d5"/><path d="M196.03564,63.143c2.58398,2.21333 2.1416,5.36733 2.30273,8.56747l0.03809,0.89143c0.04102,0.69861 0.11279,2.44777 0.26514,3.03927l-0.01611,0.88073l-0.27832,-0.09744c-0.66211,-2.83927 -0.65186,-6.81963 -1.34473,-9.78462c-0.26221,-1.12249 -0.84814,-2.58667 -0.9668,-3.49685z" fill="#b1c3d5"/><path d="M159.38965,93.07766c0.58154,-0.29377 1.50146,-1.74945 2.04785,-2.29949c4.33594,-4.36029 7.72705,-14.34286 15.37207,-9.11736c2.78906,1.90681 6.09521,4.41363 8.20313,6.81099c2.01855,1.55824 4.19531,4.46623 6.02344,6.21011c0.74707,0.85392 2.85352,3.78051 3.59473,4.09978l0.0498,0.10623l-8.81543,-0.01451c-5.91797,-0.0041 -9.49658,-0.11165 -14.80518,2.91736l-1.47949,0.97744c-2.07129,1.6337 -4.43408,3.63121 -7.00781,4.27282c-2.2793,0.73421 -12.65625,0.59839 -15.67822,0.50007c-1.29932,0.09011 -3.44165,0.0252 -4.81348,0.02374l-8.71582,0.00659c-0.9085,-0.01333 -1.81699,-0.03575 -2.72505,-0.06711c0.56294,-0.90051 2.43706,-3.07575 3.20522,-4.02886c2.11245,-2.57714 4.27236,-5.11502 6.47842,-7.61245c0.72832,-0.81407 2.05532,-2.34022 2.8166,-2.98725c1.52754,-1.87604 4.93037,-5.8674 7.54658,-5.74183c1.08545,0.05216 2.8623,0.8926 3.58154,1.68762c1.48096,0.83282 3.92139,3.01656 5.12109,4.25612z" fill="url(#color-9)"/><path d="M143.14043,92.87575c1.52754,-1.87604 4.93037,-5.8674 7.54658,-5.74183c1.08545,0.05216 2.8623,0.8926 3.58154,1.68762c1.48096,0.83282 3.92139,3.01656 5.12109,4.25612l-0.03516,0.07956c-0.54785,1.14828 -4.80176,5.68982 -5.81689,6.94623c-0.88623,1.09802 -5.8623,7.05084 -6.64307,7.43766c-1.29932,0.09011 -3.44165,0.0252 -4.81348,0.02374l-8.71582,0.00659c-0.9085,-0.01333 -1.81699,-0.03575 -2.72505,-0.06711c0.56294,-0.90051 2.43706,-3.07575 3.20522,-4.02886c2.11245,-2.57714 4.27236,-5.11502 6.47842,-7.61245c0.72832,-0.81407 2.05532,-2.34022 2.8166,-2.98725z" fill="url(#color-10)"/><path d="M143.14043,92.87575c1.52754,-1.87604 4.93037,-5.8674 7.54658,-5.74183c1.08545,0.05216 2.8623,0.8926 3.58154,1.68762c-0.96387,0.04264 -2.0332,-1.33934 -2.68359,-0.90344l0.08789,0.02799c0.62109,0.20117 0.72949,0.25172 1.08105,0.79136c0.16699,1.39692 -1.97021,1.80249 -2.96191,2.37568c-2.09766,1.21304 -4.55625,1.0359 -6.65156,1.76264z" fill="#6fdbfb"/><path d="M159.38965,93.07766c0.58154,-0.29377 1.50146,-1.74945 2.04785,-2.29949c4.33594,-4.36029 7.72705,-14.34286 15.37207,-9.11736c2.78906,1.90681 6.09521,4.41363 8.20313,6.81099c-0.81152,-0.21685 -1.41064,-0.96615 -1.94824,-1.59604c-1.15576,0.87121 -1.94092,0.95736 -3.09961,1.5767c-4.18213,2.23736 -8.69824,3.78095 -13.11621,5.50432c-1.14111,0.44542 -2.80518,0.77304 -4.00342,1.07736c-0.15967,0.04073 -0.24609,0.43136 -0.82324,0.56249c-0.58887,-0.52835 -2.24121,-1.93363 -2.66748,-2.43941z" fill="url(#color-11)"/><path d="M162.57275,107.04103c0.30029,-0.32147 0.854,-0.67223 1.05176,-0.90212c1.15723,-1.34432 2.66602,-3.6293 4.35352,-4.25128c0.19336,-0.0715 0.38232,0.12864 0.59912,0.27458c0.3457,0.52982 0.24023,0.35355 1.00342,0.60601c-2.07129,1.6337 -4.43408,3.63121 -7.00781,4.27282z" fill="url(#color-12)"/><path d="M168.57715,102.1622c1.01221,-0.58725 1.3125,-0.46623 2.48291,-0.37143l-1.47949,0.97744c-0.76318,-0.25245 -0.65771,-0.07619 -1.00342,-0.60601z" fill="#0182aa"/><path d="M201.09814,98.79692c1.42969,0.01407 2.59717,0.03839 4.01953,0.16015c0.38086,0.12733 0.84229,0.26711 1.20996,0.40821c-1.11328,0.29993 -5.2002,0.2359 -6.57715,0.24864c-4.85303,0.04513 -9.74121,-0.03546 -14.59131,0.09055c-2.28955,0.11971 -4.62744,0.04879 -6.89355,0.43853c-3.68848,0.65275 -6.60791,2.55473 -9.24756,5.12059c-1.64209,1.59575 -3.99023,4.12264 -6.15674,4.89319c-2.9458,1.04806 -6.39844,0.79971 -9.50244,0.9704c-1.75781,0.0967 -3.6709,0.09641 -5.45947,0.13568l-14.34741,0.29172c-2.39663,0.0359 -8.76226,0.04689 -10.74873,0.64659c-1.14873,0.33832 -2.19067,0.96747 -3.02534,1.82637c-1.12588,1.17758 -1.84204,2.93172 -2.38564,4.46359l-0.42803,1.23927c-0.29429,-1.15033 1.18154,-2.33319 0.54536,-3.44059c-0.52368,-0.40161 -1.47319,-0.5789 -2.14321,-0.75165c-0.21284,0.9622 -0.41323,1.90637 -0.6813,2.85597l-0.13052,0.03487c0.00674,-0.81128 1.04282,-4.70916 1.29946,-5.64718c0.05596,-0.25377 0.23789,-0.71223 0.33135,-0.97187c0.31333,-0.43062 1.95439,-2.30256 2.02266,-2.44234c1.91294,-2.03311 9.58989,-1.84557 12.43213,-1.8633c0.90806,0.03136 1.81655,0.05377 2.72505,0.06711l8.71582,-0.00659c1.37183,0.00147 3.51416,0.06637 4.81348,-0.02374c3.02197,0.09832 13.39893,0.23414 15.67822,-0.50007c2.57373,-0.64161 4.93652,-2.63912 7.00781,-4.27282l1.47949,-0.97744c5.30859,-3.02901 8.88721,-2.92147 14.80518,-2.91736l8.81543,0.01451c2.13867,-0.05143 4.27881,-0.08176 6.41748,-0.09099z" fill="url(#color-13)"/><path d="M118.20806,109.36762c1.91294,-2.03311 9.58989,-1.84557 12.43213,-1.8633c0.90806,0.03136 1.81655,0.05377 2.72505,0.06711c-5.42695,0.48498 -13.18682,-0.44073 -16.61719,4.09495c-0.16685,0.22051 -0.7459,0.98007 -0.89399,1.11546c0.05596,-0.25377 0.23789,-0.71223 0.33135,-0.97187c0.31333,-0.43062 1.95439,-2.30256 2.02266,-2.44234z" fill="#6fdbfb"/><path d="M117.39229,118.49114c0.5436,-1.53187 1.25977,-3.28601 2.38564,-4.46359c0.83467,-0.8589 1.87661,-1.48806 3.02534,-1.82637c1.98647,-0.59971 8.3521,-0.6107 10.74873,-0.64659c-0.22441,0.15531 -0.21021,0.16762 -0.47637,0.20454c0.51768,0.0189 1.13687,-0.01231 1.59023,0.19165c-1.32158,2.24 -8.64961,4.2211 -11.12212,5.09451c-1.01968,0.36015 -5.33218,2.25172 -6.15146,1.44586z" fill="#6fdbfb"/><path d="M115.36641,115.53817c0.67002,0.17275 1.61953,0.35004 2.14321,0.75165c0.63618,1.1074 -0.83965,2.29026 -0.54536,3.44059c-0.70825,3.72029 -4.83677,15.03604 -7.17935,17.76527c-0.35142,-0.58491 -0.50552,-0.84762 -0.76348,-1.47853c0.44033,-1.78125 1.32891,-3.35136 1.91689,-5.01011c0.92988,-2.62374 2.43984,-7.18901 2.7958,-9.88908c0.10942,-0.17231 0.66621,-2.24615 0.82046,-2.68894l0.13052,-0.03487c0.26807,-0.9496 0.46846,-1.89377 0.6813,-2.85597z" fill="#6fdbfb"/><path d="M198.20215,141.93114c1.44141,-0.03956 1.24658,-1.07839 1.94678,-1.35443c0.31348,0.21582 0.33545,0.28396 0.53467,0.59502c1.06201,0.06476 2.9165,-0.23795 3.87012,0.04293c0.5874,0.17245 1.23193,1.41143 2.27051,0.98227l-0.12012,-0.64601l0.25488,0.07311l0.28125,0.54593l1.13672,0.26286c-0.09082,0.18183 -0.16992,0.36293 -0.2373,0.55487l0.17725,0.14066c0.37646,-0.05201 0.33105,0.01216 0.58008,-0.19443l-0.40869,-0.03956l0.09375,-0.2611c0.34131,-0.08996 0.35156,-0.15678 0.62256,-0.05861c-0.06152,1.12659 -0.26074,0.62505 -0.07178,2.00059c-0.22998,0.19399 -0.31348,0.19502 -0.59912,0.28557l-0.05566,0.20454l0.55664,0.4189l-0.17871,0.22828l-0.27686,0.03267c-0.14502,-0.26579 -0.20508,-0.36469 -0.31055,-0.65407c-0.09082,0.18549 -0.19189,0.35033 -0.31787,0.51443c-0.60352,-0.12747 -0.66211,-0.23751 -1.20264,-0.06183c-0.40869,0.4844 -0.19775,0.35487 -0.78516,0.51136l-0.60059,-0.41802c-1.20264,1.08674 -0.13037,2.68527 -3.54492,2.15634c-1.61865,-0.25201 -1.17773,1.18388 -2.97363,1.07106c-1.03418,0.63297 -1.39307,0.32527 -2.55615,0.42198c-1.08105,0.09231 -1.14551,-0.30769 -1.21436,0.9011l-0.21533,0.09084c-0.45557,-0.42198 -0.48193,-0.5978 -1.00635,-0.64762c-0.51709,0.58608 -0.05859,0.95531 -0.51709,1.0652c-0.26953,-0.29158 -0.38965,-0.41172 -0.6958,-0.66374c-0.50537,-0.00733 -1.04883,0.01026 -1.54541,0.11575c-3.46729,0.737 -6.89648,0.58022 -10.40479,0.68132l-0.23584,-0.39853c-0.30029,-0.05714 -0.31201,-0.07766 -0.57129,0.10842c-0.23437,0.1685 -0.42627,0.4967 -0.70605,0.54212c-0.91553,0.14945 -2.17236,-0.18315 -3.12158,-0.22271c-1.48096,-0.06154 -11.90479,-0.35018 -12.29443,0.12161c-0.09229,0.11282 -0.16406,0.18901 -0.27539,0.27399c-1.06201,-0.24029 -1.30664,-0.97436 -2.17529,-1.02857c-0.375,0.29744 -0.98291,0.91429 -1.42676,0.79121c-1.80176,-0.50403 -2.21191,-1.28205 -4.12061,-0.40733c-0.25928,0.11722 -0.36768,-0.66081 -0.81592,-0.35458c-0.59912,0.36484 -0.646,0.71795 -1.396,0.80879c-0.46582,-0.14359 -0.53613,-0.28864 -0.88037,-0.6652c-1.88232,0.13773 -2.79639,0.83663 -4.89844,0.05421c-0.17725,-0.06593 -2.4854,0.27692 -2.92617,0.15531c-0.56997,-0.15678 -1.13672,0.37216 -1.39058,-0.41026c-1.2561,-0.19487 -1.67271,1.09597 -3.66035,0.19487c-0.5376,-0.24469 -1.94238,-0.17436 -2.62163,-0.1641l-0.0769,0.49084c-1.13862,-0.04689 -2.85352,-0.87912 -3.76216,-0.35458c-1.3418,0.77509 -1.06875,0.38828 -2.27563,-0.05128c-1.65337,-0.60073 -2.68726,1.11795 -4.31426,-0.08938c-1.58979,-0.16264 -3.21196,0.54945 -4.62144,-0.11575c-1.44888,-0.68278 -1.34238,0.17143 -2.3187,0.04689l-0.31934,-0.39267c-0.50977,0.01758 -0.64556,0.34725 -0.78018,0.34872c-0.94849,0.00879 -2.31563,-0.04835 -3.22939,-0.00879c-0.08774,-0.19634 -0.13755,-0.43663 -0.29736,-0.47033c-0.65229,-0.13773 -2.18291,0.07326 -2.77383,-0.00293c-1.10669,-0.14359 -1.4811,-0.57436 -2.77397,-0.61099c-0.44707,-0.38535 -0.88521,-0.99927 -1.26929,-0.97729c-0.35361,0.4674 -0.20815,0.43077 -0.64717,0.51282c-0.39009,-0.81612 -0.29561,-0.46007 -1.11958,-0.88498c-1.41563,-0.72821 -2.01416,0.59927 -2.55527,-1.15546c-0.79072,0.07121 -0.5231,0.52103 -1.20293,0.41846c-1.0103,-1.16864 0.44766,-3.15062 1.39292,-3.94549c1.1792,-0.99165 2.41436,-1.32791 3.92944,-1.37392c0.39038,0.15018 0.41851,0.23429 0.69375,0.57377l0.40327,0.05949c0.50259,0.24147 0.86558,0.49773 1.32642,0.80366c-0.43096,0.09158 -1.71211,0.43194 -2.0231,0.72352c0.21563,0.09084 1.73848,0.18945 2.08755,0.21084l0.1875,0.48674c-0.49526,0.58418 -1.66948,0.03839 -2.29131,0.39443c1.72954,3.13216 20.22466,2.823 24.3145,2.8611l20.60757,0.24469c10.38867,0.07766 21.00732,0.56703 31.37549,-0.00586c1.26855,-0.07033 4.15723,0.07033 5.43896,-0.14212c2.79199,-0.463 7.25537,-1.19414 9.81299,-2.51238c0.23877,-0.19985 0.4541,-0.54168 0.4292,-0.84586c-0.12598,-1.51531 -2.13135,-1.82711 -3.33398,-1.81729z" fill="url(#color-14)"/><path d="M127.64561,79.32117c2.80562,-2.77421 5.47266,-3.13641 9.19673,-2.28015c3.81504,1.4444 5.92822,3.55473 6.39067,7.76073c0.00908,5.3222 -3.89443,8.96044 -9.22163,8.99341c-1.41079,0.00879 -3.36387,-0.43385 -4.53691,-1.25978c-2.19316,-0.81084 -3.76509,-4.03678 -3.96211,-6.23897c-0.24741,-2.7641 0.42832,-4.82842 2.13325,-6.97524z" fill="url(#color-15)"/><path d="M129.47446,92.53538c3.49512,0.64264 4.41182,1.14095 8.18716,-0.73597c0.6668,-0.33158 1.90972,-1.1074 2.60522,-1.27941l-0.06196,0.463c2.93994,-1.59429 1.8479,-5.10125 3.02812,-6.18125c0.00908,5.3222 -3.89443,8.96044 -9.22163,8.99341c-1.41079,0.00879 -3.36387,-0.43385 -4.53691,-1.25978z" fill="#ffa304"/><path d="M195.14209,143.61817c0.67969,-0.32777 1.36084,-0.65143 2.04346,-0.97099c1.20264,-0.00982 3.20801,0.30198 3.33398,1.81729c0.0249,0.30418 -0.19043,0.64601 -0.4292,0.84586c-2.55762,1.31824 -7.021,2.04938 -9.81299,2.51238c-1.28174,0.21245 -4.17041,0.07179 -5.43896,0.14212c-10.36816,0.57289 -20.98682,0.08352 -31.37549,0.00586l-20.60757,-0.24469c-4.08984,-0.0381 -22.58496,0.27106 -24.3145,-2.8611c0.62183,-0.35604 1.79604,0.18974 2.29131,-0.39443l-0.1875,-0.48674c-0.34907,-0.02139 -1.87192,-0.12 -2.08755,-0.21084c0.31099,-0.29158 1.59214,-0.63194 2.0231,-0.72352l0.57993,0.22652c0.85942,0.55487 2.22612,0.75956 3.25254,0.94974c-0.48062,0.01011 -0.54917,0.01099 -0.98628,0.20571l0.01172,0.2041c2.61445,1.64029 13.55713,1.50037 17.05371,1.57524c8.07144,0.19253 16.14492,0.26491 24.21914,0.21685l15.65039,0.10432c8.0083,0.11136 15.93164,0.53919 23.69385,-1.31853c0.56836,-0.13612 2.15625,-0.4696 1.70068,-1.39048l-0.49365,-0.0189z" fill-opacity="0.31765" fill="#11408b"/><path d="M111.16011,143.2759c4.72236,1.29099 15.06387,0.88923 20.29497,0.88425l42.10547,0.05714l12.10254,-0.01993c1.32275,-0.00908 4.88965,-0.13832 6.03223,-0.01421c-0.89502,0.21201 -0.6167,0.02857 -1.25391,0.66652c-5.9707,1.22769 -16.97168,0.68659 -23.32764,0.66564c-15.06592,0.0989 -30.13096,-0.09934 -45.18823,-0.59473c-1.22153,-0.04659 -2.52979,-0.35355 -3.75,-0.47004c-1.23076,-0.11751 -2.52451,-0.16586 -3.76289,-0.22491c-1.02642,-0.19018 -2.39312,-0.39487 -3.25254,-0.94974z" fill-opacity="0.63922" fill="#011c4b"/><path d="M191.69531,144.18315c1.17627,-0.09201 2.29102,-0.33773 3.44678,-0.56498l0.12012,0.18579l0.49365,0.0189c0.45557,0.92088 -1.13232,1.25436 -1.70068,1.39048c-7.76221,1.85773 -15.68555,1.42989 -23.69385,1.31853l-15.65039,-0.10432c-8.07422,0.04806 -16.14771,-0.02432 -24.21914,-0.21685c-3.49658,-0.07487 -14.43926,0.06505 -17.05371,-1.57524l-0.01172,-0.2041c0.43711,-0.19473 0.50566,-0.1956 0.98628,-0.20571c1.23838,0.05905 2.53213,0.1074 3.76289,0.22491c1.22021,0.11648 2.52847,0.42344 3.75,0.47004c15.05728,0.49538 30.12231,0.69363 45.18823,0.59473c6.35596,0.02095 17.35693,0.56205 23.32764,-0.66564c0.63721,-0.63795 0.35889,-0.45451 1.25391,-0.66652z" fill-opacity="0.5098" fill="#0e2b59"/></g></svg>