<svg xmlns="http://www.w3.org/2000/svg" viewBox="0 0 300 200" width="300" height="200"><defs><clipPath id="clip-1"><rect x="0" y="0" width="300" height="200"/></clipPath><linearGradient x1="204.22266" y1="116.87853" x2="199.62158" y2="116.66725" gradientUnits="userSpaceOnUse" id="color-1"><stop offset="0" stop-color="#d96500"/><stop offset="1" stop-color="#fe9f01"/></linearGradient><linearGradient x1="150.89502" y1="124.37275" x2="136.76733" y2="128.49377" gradientUnits="userSpaceOnUse" id="color-2"><stop offset="0" stop-color="#3dde1b"/><stop offset="1" stop-color="#15a42f"/></linearGradient><linearGradient x1="156.73535" y1="150.94652" x2="156.74414" y2="148.38681" gradientUnits="userSpaceOnUse" id="color-3"><stop offset="0" stop-color="#14a629"/><stop offset="1" stop-color="#27c430"/></linearGradient><linearGradient x1="155.59277" y1="158.5304" x2="155.52686" y2="152.51722" gradientUnits="userSpaceOnUse" id="color-4"><stop offset="0" stop-color="#1c7ce7"/><stop offset="1" stop-color="#42a0ff"/></linearGradient><linearGradient x1="156.72217" y1="161.01245" x2="156.62695" y2="152.55385" gradientUnits="userSpaceOnUse" id="color-5"><stop offset="0" stop-color="#0047b4"/><stop offset="1" stop-color="#016de4"/></linearGradient><linearGradient x1="168.1875" y1="86.27458" x2="155.44043" y2="67.48059" gradientUnits="userSpaceOnUse" id="color-6"><stop offset="0" stop-color="#119cfe"/><stop offset="1" stop-color="#3cb9fd"/></linearGradient><linearGradient x1="116.82026" y1="113.19722" x2="117.48091" y2="110.87414" gradientUnits="userSpaceOnUse" id="color-7"><stop offset="0" stop-color="#0065e7"/><stop offset="1" stop-color="#0180f7"/></linearGradient><linearGradient x1="184.10889" y1="53.08762" x2="185.31445" y2="50.28762" gradientUnits="userSpaceOnUse" id="color-8"><stop offset="0" stop-color="#005eca"/><stop offset="1" stop-color="#0477e3"/></linearGradient><linearGradient x1="122.95811" y1="151.07253" x2="122.98945" y2="124.68161" gradientUnits="userSpaceOnUse" id="color-9"><stop offset="0" stop-color="#0075f7"/><stop offset="1" stop-color="#39abff"/></linearGradient><linearGradient x1="138.33237" y1="138.24352" x2="132.92417" y2="137.46212" gradientUnits="userSpaceOnUse" id="color-10"><stop offset="0" stop-color="#044ac6"/><stop offset="1" stop-color="#0063de"/></linearGradient><linearGradient x1="116.8251" y1="138.49289" x2="110.22803" y2="136.74125" gradientUnits="userSpaceOnUse" id="color-11"><stop offset="0" stop-color="#1e81f6"/><stop offset="1" stop-color="#48caff"/></linearGradient><linearGradient x1="113.93174" y1="123.53568" x2="107.17427" y2="111.70037" gradientUnits="userSpaceOnUse" id="color-12"><stop offset="0" stop-color="#005ade"/><stop offset="1" stop-color="#2598ff"/></linearGradient></defs><g clip-path="url(#clip-1)" fill="none" fill-rule="nonzero" stroke="none" stroke-width="1" stroke-linecap="butt" stroke-linejoin="miter" stroke-miterlimit="10" stroke-dasharray="" stroke-dashoffset="0" style="mix-blend-mode: normal"><path d="M177.04688,151.18242l-0.03223,-47.27502l-0.00732,-13.41568c0.00293,-3.05114 -0.71191,-8.2233 2.13281,-10.06168c3.07178,-1.98418 8.29541,-0.95839 11.91064,-1.16586c2.25732,-0.12952 5.05811,-0.08425 7.30518,0.10022c1.88379,0.15458 3.04541,1.54755 4.05029,2.98051c0.41895,0.85011 0.69873,1.57304 0.71631,2.53524c0.06299,3.33114 0.04102,6.70154 0.04102,10.03267l-0.00293,19.03487l0.00146,21.2337c0.00439,4.45245 0.03809,8.94505 -0.03076,13.40029c-0.01465,0.96117 -0.23291,1.79927 -0.85693,2.55971c-0.42041,0.04542 -0.85107,0.0967 -1.27002,0.13773l-3.23584,0.02344c-4.45166,-0.03663 -8.90332,-0.03663 -13.35498,0.00293c-1.96436,0.00879 -5.53125,0.11429 -7.3667,-0.12308z" fill="#feae03"/><path d="M202.40625,82.34491c0.41895,0.85011 0.69873,1.57304 0.71631,2.53524c0.06299,3.33114 0.04102,6.70154 0.04102,10.03267l-0.00293,19.03487l0.00146,21.2337c0.00439,4.45245 0.03809,8.94505 -0.03076,13.40029c-0.01465,0.96117 -0.23291,1.79927 -0.85693,2.55971c-0.42041,0.04542 -0.85107,0.0967 -1.27002,0.13773l-3.23584,0.02344l-0.48486,-0.18022c0.36475,-0.18755 1.54834,-0.13919 2.03174,-0.14212c-0.62109,-0.01905 -1.62451,-0.00293 -2.1709,-0.19927c0.31787,-0.29304 1.56738,-0.2989 2.04492,-0.34872c0.37354,-0.03956 0.35742,0.04835 0.58008,0.27985c1.229,-2.31355 0.85693,-7.08059 0.84668,-9.79194l-0.01025,-11.14945l0.21533,-32.14359l0.01465,-8.17597c0.00439,-1.71985 -0.06299,-4.05451 0.19775,-5.70505c0.62109,-0.53553 0.88916,-0.74564 1.37256,-1.40117z" fill="url(#color-1)"/><path d="M181.5249,80.49656c1.97607,-0.49128 6.81299,0.1219 9.05713,-0.09832c2.0127,-0.19736 4.73584,0.15355 6.83057,0.00059c0.45996,-0.03355 1.59961,0.21509 1.72559,0.76147c-1.02979,1.63297 -13.99512,0.21201 -16.29492,1.04469c-1.12207,0.40601 -2.13428,1.48777 -2.71582,2.34227l-0.0542,0.07883c-0.01025,-0.37201 0.00586,-0.42755 0.08643,-0.79487l-0.19482,-0.21055l-0.57422,0.00469c-0.49805,0.62799 -0.25195,6.35355 -0.27539,7.64601c-0.04687,-1.50623 -0.41162,-8.22872 0.36621,-9.10989c0.69434,-0.91853 1.02393,-1.1411 2.04346,-1.66491z" fill="#feee57"/><path d="M181.5249,80.49656c0.60059,0.10271 0.70166,0.00352 0.98877,0.39297c-0.22705,0.9581 -1.92773,1.43634 -2.79639,1.41128l-0.23584,-0.13934c0.69434,-0.91853 1.02393,-1.1411 2.04346,-1.66491z" fill="#ebfe9e"/><path d="M143.73984,101.65582c1.40068,-2.27297 3.32461,-2.83707 5.85146,-2.55971c3.68848,0.40484 15.23291,-0.82916 18.13477,0.78872c0.6416,0.57407 1.34326,1.14593 1.74023,1.92147c0.99316,2.10374 0.71631,6.2104 0.71631,8.61582v10.19575l-0.01465,30.56747l-0.1377,0.03077c-0.97559,0.21099 -7.22021,0.15092 -8.51221,0.12747c-5.21484,-0.0967 -10.62451,0.09231 -15.81416,-0.01758c-0.99155,0.0044 -1.60986,-0.03223 -2.59673,-0.13626l-0.02241,-31.07868l-0.00542,-9.82549c-0.00205,-2.25568 -0.26602,-6.6926 0.6605,-8.62974z" fill="#4cd629"/><path d="M167.83887,125.82872c-0.09229,-1.36996 -0.04248,-7.08718 0.01025,-8.57963c0.1333,-3.77011 -0.29297,-13.05055 0.53174,-16.20674l0.2168,0.14711l-0.06299,-0.04747c0.13623,0.18872 0.25488,0.38769 0.37793,0.58535l0.55371,0.07897c0.99316,2.10374 0.71631,6.2104 0.71631,8.61582v10.19575l-0.01465,30.56747l-0.1377,0.03077c-0.70898,-0.12601 -1.35498,0.00733 -2.25146,-0.13333l-0.21826,-0.35458c0.49805,-1.14579 0.34717,-10.01524 0.31787,-11.93055c-0.05566,-3.81289 0.20068,-9.1811 -0.03955,-12.96894z" fill="#16a50f"/><path d="M143.73984,101.65582c0.4998,0.21846 0.73726,0.83546 1.07197,1.38579c0.08657,6.42418 0.11455,12.84894 0.08423,19.2737c-0.39346,8.52777 0.2231,17.51546 0.03311,26.08615c-0.01392,0.62857 -0.03501,1.6293 0.39814,2.12308l0.2543,-0.07326l0.45483,0.11429l0.04863,0.25201l-0.38115,0.50842c-0.99155,0.0044 -1.60986,-0.03223 -2.59673,-0.13626l-0.02241,-31.07868l-0.00542,-9.82549c-0.00205,-2.25568 -0.26602,-6.6926 0.6605,-8.62974z" fill="url(#color-2)"/><path d="M143.73984,101.65582c1.40068,-2.27297 3.32461,-2.83707 5.85146,-2.55971c3.68848,0.40484 15.23291,-0.82916 18.13477,0.78872c-0.64307,2.76806 -0.75293,6.78183 -0.81738,9.71018c-0.35889,-2.36645 0.8291,-7.60249 -1.27441,-8.75736c-0.35156,0.1559 -0.35156,0.18271 -0.6167,0.44205c0.27246,0.25744 0.31348,0.28542 0.63135,0.48777c-1.20264,1.14271 -14.40234,-0.31604 -16.64648,0.54037c-1.52051,0.58037 -1.79736,0.8378 -2.7353,2.21758l-0.22559,9.21582c-0.03721,1.15092 -0.01494,2.97597 -0.14341,4.0359c-0.38086,-1.34066 -0.03135,-10.5367 -0.14062,-12.55004c-0.00923,-0.17128 0.58403,-1.65084 0.70649,-1.95473l-1.298,0.11883l0.00029,15.42081c-0.00059,2.63722 0.08423,5.85495 -0.05186,8.45626c-0.06768,-1.12059 -0.0936,-4.13875 -0.21841,-4.95297c0.03032,-6.42476 0.00234,-12.84952 -0.08423,-19.2737c-0.33472,-0.55033 -0.57217,-1.16733 -1.07197,-1.38579z" fill="#6def1e"/><path d="M148.26855,100.13817c2.04932,-0.15883 15.72803,-0.13758 16.70801,0.32864c-0.38672,1.39121 -13.04883,0.32396 -14.80371,0.68264c-1.84863,0.37788 -3.63721,2.03722 -4.91309,1.8841l-0.17783,-0.20205c0.02886,-0.38769 0.17051,-0.72352 0.41499,-1.03282c0.0687,-0.08908 0.13901,-0.177 0.21079,-0.26374c0.75894,-0.92484 1.40068,-1.27575 2.56084,-1.39678z" fill="#bbfe59"/><path d="M145.49692,101.79868c0.0687,-0.08908 0.13901,-0.177 0.21079,-0.26374c0.75894,-0.92484 1.40068,-1.27575 2.56084,-1.39678c-0.0791,1.31341 -2.01519,2.05216 -2.77163,1.66051z" fill="#ebfe9e"/><path d="M145.58159,150.45128c1.18403,-1.58242 18.20112,0.30476 20.80708,-0.70769c0.37939,-0.44835 0.48047,-0.89231 0.67236,-1.45055c-0.01318,0.59341 -0.12158,1.67033 0.1084,2.15238c0.17725,0.0967 0.26221,0.12454 0.39111,0.28278l0.21826,0.35458c0.89648,0.14066 1.54248,0.00733 2.25146,0.13333c-0.97559,0.21099 -7.22021,0.15092 -8.51221,0.12747c-5.21484,-0.0967 -10.62451,0.09231 -15.81416,-0.01758l0.38115,-0.50842l-0.04863,-0.25201z" fill="url(#color-3)"/><path d="M167.83887,125.82872c0.24023,3.78784 -0.01611,9.15604 0.03955,12.96894c0.0293,1.91531 0.18018,10.78476 -0.31787,11.93055c-0.12891,-0.15824 -0.21387,-0.18608 -0.39111,-0.28278c-0.22998,-0.48205 -0.12158,-1.55897 -0.1084,-2.15238c0.01758,-0.57582 0.13477,-1.27033 0.1582,-1.83751c0.0293,-0.71062 -0.29004,-4.39458 -0.04248,-4.85451l0.08936,0.06608c0.18896,0.79766 0.16113,1.94945 0.17578,2.7956c0.39111,-1.02081 0.2124,-3.72396 0.20801,-4.98037c-0.01758,-3.02447 -0.01465,-6.04908 0.00732,-9.07355c0.01611,-1.22637 0.00439,-3.41465 0.18164,-4.58007z" fill="#16af22"/><path d="M111.78369,150.97289c1.15986,0.83516 15.45249,0.1641 17.68857,0.38535c0.49585,0.04982 3.81431,0.02198 4.51099,-0.01319c0.8688,0.01905 2.1394,0.05861 2.96001,-0.12747c1.00942,-0.11722 5.22261,-0.21832 6.16392,-0.02784c0.98687,0.10403 1.60518,0.14066 2.59673,0.13626c5.18965,0.10989 10.59932,-0.07912 15.81416,0.01758c1.29199,0.02344 7.53662,0.08352 8.51221,-0.12747l0.1377,-0.03077c1.43115,-0.04396 5.61035,-0.19194 6.87891,-0.00293c1.83545,0.23736 5.40234,0.13187 7.3667,0.12308c4.45166,-0.03956 8.90332,-0.03956 13.35498,-0.00293l3.23584,-0.02344c0.41895,-0.04103 0.84961,-0.09231 1.27002,-0.13773c1.50293,-0.02198 6.56836,-0.19048 7.78418,0.15678l0.13037,0.03663c0.86719,0.34725 1.64795,0.85714 1.93213,1.77875c0.82764,2.68571 0.53906,5.21758 -1.67285,6.93626c0.51416,0.29597 1.16309,0.60952 1.54248,1.04029c-0.31055,0.13919 -1.05322,-0.08059 -1.47656,-0.15385l-0.36035,0.44835c0.44531,0.23004 1.24658,-0.27399 1.97314,-0.01026c-1.29932,0.31941 -5.62646,0.67253 -6.98877,0.72967c-8.18701,0.33553 -16.35791,0.21685 -24.52881,0.31502c-20.29102,0.32967 -40.58657,0.29304 -60.87627,-0.10842c-5.13618,-0.08791 -10.34121,0.15092 -15.43462,-0.45568c-0.92183,-0.10989 -2.50342,0.01758 -3.28784,-0.38095l0.35303,-0.12601c0.12085,-0.29744 0.01655,-0.67253 -0.03647,-1.00659c0.30879,-0.21685 0.61553,-0.37949 0.94321,-0.56264c-1.76133,-1.57949 -1.87192,-5.2293 -0.96445,-7.23663l0.45688,-0.63736c2.46475,-1.73773 7.95439,-0.18755 10.02085,-0.93187z" fill="url(#color-4)"/><path d="M210.18896,151.3348c0.86719,0.34725 1.64795,0.85714 1.93213,1.77875c0.82764,2.68571 0.53906,5.21758 -1.67285,6.93626c0.51416,0.29597 1.16309,0.60952 1.54248,1.04029c-0.31055,0.13919 -1.05322,-0.08059 -1.47656,-0.15385l-0.36035,0.44835c0.44531,0.23004 1.24658,-0.27399 1.97314,-0.01026c-1.29932,0.31941 -5.62646,0.67253 -6.98877,0.72967c-8.18701,0.33553 -16.35791,0.21685 -24.52881,0.31502c-20.29102,0.32967 -40.58657,0.29304 -60.87627,-0.10842c-5.13618,-0.08791 -10.34121,0.15092 -15.43462,-0.45568c-0.92183,-0.10989 -2.50342,0.01758 -3.28784,-0.38095l0.35303,-0.12601c0.12085,-0.29744 0.01655,-0.67253 -0.03647,-1.00659c0.30879,-0.21685 0.61553,-0.37949 0.94321,-0.56264c-1.76133,-1.57949 -1.87192,-5.2293 -0.96445,-7.23663c0.3189,0.78388 0.43608,0.98462 0.90688,1.69084l-0.61699,2.86593c-0.16904,-1.26886 0.14604,-2.92601 -0.30688,-3.92234c-0.21973,0.68425 -0.12056,3.11795 -0.09844,3.92088c1.43994,2.07033 13.7625,1.40659 16.78623,1.39487l17.4791,-0.00879c15.04658,0.12747 30.09199,0.15678 45.13887,0.08791c8.12256,0.00733 16.24219,0.14212 24.36475,-0.04542c7.79004,-0.18168 4.16162,-2.71502 5.19434,-7.04615z" fill="url(#color-5)"/><path d="M102.27041,159.77875c1.01001,0.53187 1.63345,0.93333 2.78408,0.95531c2.90171,0.05275 5.81895,0.04249 8.72051,0.04249l15.50054,-0.00147l46.68735,-0.00293h21.13916c3.74414,0.00586 10.06348,0.45861 13.34619,-0.72234c0.51416,0.29597 1.16309,0.60952 1.54248,1.04029c-0.31055,0.13919 -1.05322,-0.08059 -1.47656,-0.15385l-0.36035,0.44835c0.44531,0.23004 1.24658,-0.27399 1.97314,-0.01026c-1.29932,0.31941 -5.62646,0.67253 -6.98877,0.72967c-8.18701,0.33553 -16.35791,0.21685 -24.52881,0.31502c-20.29102,0.32967 -40.58657,0.29304 -60.87627,-0.10842c-5.13618,-0.08791 -10.34121,0.15092 -15.43462,-0.45568c-0.92183,-0.10989 -2.50342,0.01758 -3.28784,-0.38095l0.35303,-0.12601c0.12085,-0.29744 0.01655,-0.67253 -0.03647,-1.00659c0.30879,-0.21685 0.61553,-0.37949 0.94321,-0.56264z" fill="#cfcfd2"/><path d="M111.78369,150.97289c1.15986,0.83516 15.45249,0.1641 17.68857,0.38535c0.49585,0.04982 3.81431,0.02198 4.51099,-0.01319c0.8688,0.01905 2.1394,0.05861 2.96001,-0.12747c1.00942,-0.11722 5.22261,-0.21832 6.16392,-0.02784c0.98687,0.10403 1.60518,0.14066 2.59673,0.13626c5.18965,0.10989 10.59932,-0.07912 15.81416,0.01758c1.29199,0.02344 7.53662,0.08352 8.51221,-0.12747l0.1377,-0.03077c1.43115,-0.04396 5.61035,-0.19194 6.87891,-0.00293c1.83545,0.23736 5.40234,0.13187 7.3667,0.12308c4.45166,-0.03956 8.90332,-0.03956 13.35498,-0.00293l3.23584,-0.02344c0.41895,-0.04103 0.84961,-0.09231 1.27002,-0.13773c1.50293,-0.02198 6.56836,-0.19048 7.78418,0.15678c-0.64014,0.13919 -1.32129,0.72527 -2.01855,1.04615c-3.18604,1.25128 -5.41406,0.88059 -8.73779,0.88205l-14.03027,0.0044l-61.70288,0.10256l-14.32456,0.05421c-1.12881,0.00879 -4.64238,0.44103 -5.72271,-0.09084c-0.58843,-0.28864 -1.48154,-0.84542 -1.75898,-1.39194c2.46475,-1.73773 7.95439,-0.18755 10.02085,-0.93187z" fill="#54b1fe"/><path d="M202.27441,151.14139c1.50293,-0.02198 6.56836,-0.19048 7.78418,0.15678c-0.64014,0.13919 -1.32129,0.72527 -2.01855,1.04615c-1.01807,-1.49451 -7.80176,-0.18608 -9.50391,-0.56557l0.03955,-0.11136c0.7793,-0.01026 2.13281,-0.02344 2.83154,-0.25055l-0.40283,-0.13773c0.41895,-0.04103 0.84961,-0.09231 1.27002,-0.13773z" fill="#379dfe"/><path d="M104.38872,151.5326c0.80713,0.05714 1.56621,0.26227 2.47178,0.28864c3.34951,0.09524 6.73052,0.07912 10.08164,0.09084c6.73462,0.03956 13.46953,0.03516 20.2043,-0.01319l46.48931,0.06886h15.13477c1.81348,0.00586 6.96533,-0.06593 8.5166,0.31355l-1.58643,0.03516c-2.28369,0.3033 -4.82959,0.03223 -7.14404,0.1685c-4.42383,0.26081 -8.83594,0.04396 -13.25684,0.02637l-37.30225,0.08791c-2.39048,0.01319 -4.75151,0.17436 -7.15488,0.14945c-10.85889,-0.11282 -21.71294,0.14799 -32.56772,0.09963c-1.16777,-0.0044 -3.75161,0.64176 -4.39292,-0.35311c0.07354,-0.61392 0.01025,-0.38681 0.50669,-0.96264z" fill="#75ccfe"/><path d="M181.81934,46.61656c0.01904,-0.02256 0.03516,-0.04659 0.05566,-0.06755c1.02832,-1.06974 22.56885,-6.91531 24.82031,-6.9915c1.0166,0.52147 1.2876,0.73289 1.79883,1.7978c0.09521,0.60117 0.07178,1.13289 -0.02197,1.73377c-0.38379,2.497 -4.6377,21.27209 -5.48291,22.4885c-0.40576,0.5833 -1.14551,1.09201 -1.84424,1.20278c-0.89062,0.14095 -1.80469,-0.42388 -2.47119,-0.95692c-1.5835,-1.26315 -2.89893,-3.0022 -4.54687,-4.14125c-2.54736,2.24117 -6.33252,6.25714 -8.85937,8.74593c-4.59229,4.57187 -9.32812,8.9978 -14.19873,13.27136c-2.36719,2.10901 -4.87646,4.51912 -7.50293,6.26374c-4.99951,3.32073 -12.35742,0.74872 -17.76328,2.12205c-1.25566,0.31897 -7.06128,5.35663 -8.30933,6.39092l-12.41602,10.32498c-2.37568,1.99399 -5.02749,4.3433 -7.4376,6.21363c-0.14385,-0.25788 -0.352,-0.81612 -0.473,-1.11194c-0.37397,-0.7537 -1.40713,-1.91839 -1.41445,-2.49538l-0.32212,-0.20733c-0.07734,-0.42608 -0.0646,-0.4104 -0.29429,-0.7726c0.20112,-0.45509 4.43027,-4.25143 5.11597,-4.89289c2.80635,-2.67516 5.59438,-5.36967 8.36382,-8.08308c2.32925,-2.27883 4.627,-4.58974 6.89238,-6.93201c1.46499,-1.51443 2.89907,-3.19311 4.50981,-4.54945c1.02188,-0.86037 2.31123,-1.56396 3.59883,-1.92293c2.88677,-0.80469 8.24517,-0.25011 11.36675,-0.20161c1.29492,0.02022 2.67627,0.08498 3.93896,-0.24806c2.10645,-0.5556 26.37744,-25.64879 28.12354,-28.66139c-1.53809,-2.12615 -4.75195,-3.23824 -6.08203,-6.18198c0.01758,-0.89216 0.23877,-1.48498 0.85547,-2.13758z" fill="url(#color-6)"/><path d="M206.69531,39.55751c1.0166,0.52147 1.2876,0.73289 1.79883,1.7978c0.09521,0.60117 0.07178,1.13289 -0.02197,1.73377c-0.38379,2.497 -4.6377,21.27209 -5.48291,22.4885c-0.40576,0.5833 -1.14551,1.09201 -1.84424,1.20278c-0.89062,0.14095 -1.80469,-0.42388 -2.47119,-0.95692c-1.5835,-1.26315 -2.89893,-3.0022 -4.54687,-4.14125c-2.54736,2.24117 -6.33252,6.25714 -8.85937,8.74593c-4.59229,4.57187 -9.32812,8.9978 -14.19873,13.27136c-2.36719,2.10901 -4.87646,4.51912 -7.50293,6.26374c-4.99951,3.32073 -12.35742,0.74872 -17.76328,2.12205c-1.25566,0.31897 -7.06128,5.35663 -8.30933,6.39092l-12.41602,10.32498c-2.37568,1.99399 -5.02749,4.3433 -7.4376,6.21363c-0.14385,-0.25788 -0.352,-0.81612 -0.473,-1.11194c-0.37397,-0.7537 -1.40713,-1.91839 -1.41445,-2.49538c0.61392,-0.49626 1.23296,-0.98623 1.85698,-1.4696c0.29238,0.0296 0.47329,0.01582 0.70898,0.18916l-0.20464,0.51883l0.15234,0.31707c1.5873,1.03267 2.63687,-2.26388 4.74697,-2.61245c0.8124,-0.42784 4.65498,-3.94022 5.70205,-4.84454c3.03838,-2.61172 6.05464,-5.24908 9.04849,-7.91194c1.67725,-1.48425 3.29956,-2.99399 5.04844,-4.38593c2.57974,-2.05319 5.30288,-1.99165 8.423,-1.98081c2.00244,0.00689 4.01514,0.00352 6.02051,0.00967c0.57568,-0.18168 1.75635,-0.38256 2.45361,-0.55663c2.36279,-0.59106 3.80859,-1.62505 5.68945,-3.06476c2.13574,-2.23502 5.03467,-4.38974 7.29785,-6.6907l1.32861,-0.50872c0.43359,-0.25084 2.85938,-2.63018 3.3501,-3.10388c3.30176,-3.18828 6.56104,-6.42139 9.7749,-9.69846c1.61865,-1.64542 3.19482,-3.36366 4.8501,-4.97582c2.17969,-2.03473 2.66455,-1.10974 4.4707,0.57612c0.97266,0.90842 2.63965,2.80586 3.71777,3.32542c0.72363,-0.18476 1.13672,-0.31004 1.31396,-1.06256c-0.13916,-1.18872 1.58057,-7.35092 1.88672,-8.91971c0.06152,-0.31648 -0.27539,-0.52308 -0.5625,-0.8211c-0.02637,-0.13099 2.51221,-10.36234 2.58105,-11.56718c0.00293,-0.04718 1.09277,-0.73363 1.35938,-1.54505z" fill="#0068d5"/><path d="M206.69531,39.55751c1.0166,0.52147 1.2876,0.73289 1.79883,1.7978c-0.85254,0.07868 -0.86865,0.00352 -1.66846,-0.25304l-0.1084,-0.03619c-1.10596,5.08278 -2.25586,10.1559 -3.44971,15.21875c-0.41162,1.76308 -1.21729,5.69582 -1.76514,7.19209c-0.13916,-1.18872 1.58057,-7.35092 1.88672,-8.91971c0.06152,-0.31648 -0.27539,-0.52308 -0.5625,-0.8211c-0.02637,-0.13099 2.51221,-10.36234 2.58105,-11.56718c0.00293,-0.04718 1.09277,-0.73363 1.35938,-1.54505z" fill="#379dfe"/><path d="M172.69629,78.92484l1.32861,-0.50872c-0.83057,0.91868 -6.72656,6.49128 -7.59521,7.05729c-2.30713,2.35311 -4.87939,3.75282 -8.22656,3.78154c-0.31641,0.00352 -0.63281,-0.00249 -0.94775,-0.01802c0.57568,-0.18168 1.75635,-0.38256 2.45361,-0.55663c2.36279,-0.59106 3.80859,-1.62505 5.68945,-3.06476c2.13574,-2.23502 5.03467,-4.38974 7.29785,-6.6907z" fill="#379dfe"/><path d="M117.60923,109.93788c0.29238,0.0296 0.47329,0.01582 0.70898,0.18916l-0.20464,0.51883l0.15234,0.31707c1.5873,1.03267 2.63687,-2.26388 4.74697,-2.61245c-1.04927,1.05524 -5.64185,4.8167 -5.84619,5.55238c-0.37397,-0.7537 -1.40713,-1.91839 -1.41445,-2.49538c0.61392,-0.49626 1.23296,-0.98623 1.85698,-1.4696z" fill="url(#color-7)"/><path d="M188.31299,54.06974l0.17578,-0.31985c0.12598,0.05333 0.18018,0.03897 0.23438,0.17128c0.19336,0.47487 0.14648,0.80396 -0.06592,1.26637c-1.29785,2.83766 -23.76709,25.78667 -27.28564,28.65978c-0.52002,0.42403 -1.20703,0.73626 -1.83691,0.95004c-0.53613,0.18154 -1.00635,0.25934 -1.57178,0.24278c-4.27148,0.03502 -12.18325,-0.65817 -15.46348,1.53832c-2.48203,1.58154 -8.88442,8.18667 -11.348,10.60073c-4.42998,4.34066 -9.07734,8.5033 -13.54219,12.75868c-0.62402,0.48337 -1.24307,0.97333 -1.85698,1.4696l-0.32212,-0.20733c-0.07734,-0.42608 -0.0646,-0.4104 -0.29429,-0.7726c0.20112,-0.45509 4.43027,-4.25143 5.11597,-4.89289c2.80635,-2.67516 5.59438,-5.36967 8.36382,-8.08308c2.32925,-2.27883 4.627,-4.58974 6.89238,-6.93201c1.46499,-1.51443 2.89907,-3.19311 4.50981,-4.54945c1.02188,-0.86037 2.31123,-1.56396 3.59883,-1.92293c2.88677,-0.80469 8.24517,-0.25011 11.36675,-0.20161c1.29492,0.02022 2.67627,0.08498 3.93896,-0.24806c2.10645,-0.5556 26.37744,-25.64879 28.12354,-28.66139l0.00439,0.24513l0.20215,0.04278c0.52734,-0.39663 0.66797,-0.62828 1.06055,-1.15429z" fill="#75ccfe"/><path d="M142.49941,86.57846l-0.21533,-0.44527c0.27173,-1.41597 3.94014,-1.86227 5.07041,-1.817c3.68115,0.14725 8.02588,-0.28425 11.63379,0.12733c-0.22705,0.31722 -0.61816,0.4107 -1.02539,0.59663c-4.27148,0.03502 -12.18325,-0.65817 -15.46348,1.53832z" fill="#baecfd"/><path d="M181.81934,46.61656c0.01904,-0.02256 0.03516,-0.04659 0.05566,-0.06755c1.02832,-1.06974 22.56885,-6.91531 24.82031,-6.9915l0.07178,1.06637c-2.19287,1.53582 -6.32373,2.14139 -8.94434,3.04747c-2.45654,0.84923 -5.26465,1.51355 -7.77246,2.25011c-1.37256,0.40278 -7.25537,2.51355 -8.25586,1.69333c-0.12744,-0.53685 0.07764,-0.58857 0.0249,-0.99824z" fill="#75ccfe"/><path d="M205.7168,40.00557l0.44971,0.11385l-0.0542,0.29011c-1.04736,0.90315 -20.4126,6.19941 -23.37891,7.03341l-0.36182,-0.02886v-0.257c0.31787,-0.39502 20.9751,-6.25656 23.34521,-7.1515z" fill="#baecfd"/><path d="M172.69629,78.92484c1.04004,-1.23136 3.48926,-3.29758 4.77246,-4.53319c3.11865,-3.0041 6.1582,-6.08586 9.24023,-9.12733c1.69629,-1.67414 3.65771,-4.28762 5.3042,-5.6885c0.59326,-0.50462 1.51465,-0.94081 2.3042,-0.85421c0.36914,0.04059 5.37012,5.17436 5.87109,5.81788c-1.07812,-0.51956 -2.74512,-2.417 -3.71777,-3.32542c-1.80615,-1.68586 -2.29102,-2.61084 -4.4707,-0.57612c-1.65527,1.61216 -3.23145,3.3304 -4.8501,4.97582c-3.21387,3.27707 -6.47314,6.51018 -9.7749,9.69846c-0.49072,0.4737 -2.9165,2.85304 -3.3501,3.10388z" fill="#379dfe"/><path d="M180.96387,48.75414c1.05615,-0.3115 1.41064,-0.40894 2.43164,0.18388c1.35938,0.79004 4.69482,3.5307 4.91748,5.13172c-0.39258,0.52601 -0.5332,0.75766 -1.06055,1.15429l-0.20215,-0.04278l-0.00439,-0.24513c-1.53809,-2.12615 -4.75195,-3.23824 -6.08203,-6.18198z" fill="url(#color-8)"/><path d="M115.25801,122.57714c0.69463,-0.23326 0.55034,-0.08352 0.93926,-0.54022c0.64644,0.14242 2.79155,0.06212 3.53892,0.05465l8.54487,-0.04469c1.02656,-0.00234 3.86602,-0.05846 4.7373,0.13978c1.00312,0.11502 1.93462,0.57685 2.63364,1.30564c1.49429,2.04542 1.29302,2.76952 1.30986,5.22872c0.05156,7.49407 -0.0917,15.00381 -0.0186,22.49656c-0.82061,0.18608 -2.09121,0.14652 -2.96001,0.12747c-0.69668,0.03516 -4.01514,0.063 -4.51099,0.01319c-2.23608,-0.22125 -16.52871,0.44982 -17.68857,-0.38535l-0.01201,-0.23736c-0.42393,-1.32747 -0.02534,-20.57729 -0.12393,-23.71487c-0.01494,-0.47634 0.27056,-1.64615 0.51973,-2.08777c0.11631,-0.20615 0.07515,-0.17011 0.02358,-0.43678c0.5124,0.00147 0.51973,0.11678 0.86938,0.15634c0.71719,-1.1389 1.02964,-1.38872 2.19756,-2.07531z" fill="url(#color-9)"/><path d="M135.652,123.49231c1.49429,2.04542 1.29302,2.76952 1.30986,5.22872c0.05156,7.49407 -0.0917,15.00381 -0.0186,22.49656c-0.82061,0.18608 -2.09121,0.14652 -2.96001,0.12747c0.727,-1.43297 0.54741,-4.84278 0.46523,-6.51399c-0.05742,-5.88322 0.14604,-13.75502 -0.27334,-19.37421c0.55049,-1.18857 0.90469,-1.12835 1.47686,-1.96454z" fill="url(#color-10)"/><path d="M115.25801,122.57714c0.69463,-0.23326 0.55034,-0.08352 0.93926,-0.54022c0.64644,0.14242 2.79155,0.06212 3.53892,0.05465l8.54487,-0.04469c1.02656,-0.00234 3.86602,-0.05846 4.7373,0.13978c1.00312,0.11502 1.93462,0.57685 2.63364,1.30564c-0.57217,0.83619 -0.92637,0.77597 -1.47686,1.96454l-0.03472,-0.62051l-0.20508,0.34769c-0.67734,-0.04542 -1.35747,-0.83267 -2.12476,-0.85832c-2.03188,-0.06681 -4.07124,0.12806 -6.10488,0.14081c-2.80825,0.01744 -5.59321,-0.22564 -8.39897,0.03692c-0.57217,0.05348 -1.42617,0.6907 -1.76558,1.14608c-0.88564,-0.01465 -1.38853,-0.51385 -2.4709,-0.7137l-0.00981,-0.28337c0.71719,-1.1389 1.02964,-1.38872 2.19756,-2.07531z" fill="#75ccfe"/><path d="M115.25801,122.57714c0.69463,-0.23326 0.55034,-0.08352 0.93926,-0.54022c0.64644,0.14242 2.79155,0.06212 3.53892,0.05465l8.54487,-0.04469c1.02656,-0.00234 3.86602,-0.05846 4.7373,0.13978c1.00312,0.11502 1.93462,0.57685 2.63364,1.30564c-0.57217,0.83619 -0.92637,0.77597 -1.47686,1.96454l-0.03472,-0.62051l-0.05024,-0.1893c-0.26235,-1.02403 -1.25669,-1.29773 -2.16416,-1.54916c-1.35073,-0.2063 -5.21001,-0.21084 -6.75073,-0.17465c-3.70562,0.08703 -6.27568,-0.03868 -9.91729,-0.34608z" fill="#54b1fe"/><path d="M133.01836,122.18667c1.00312,0.11502 1.93462,0.57685 2.63364,1.30564c-0.57217,0.83619 -0.92637,0.77597 -1.47686,1.96454l-0.03472,-0.62051l-0.05024,-0.1893c-0.26235,-1.02403 -1.25669,-1.29773 -2.16416,-1.54916c-1.54819,-0.68733 -2.50283,-0.46242 -4.13467,-0.75355c1.7436,0.00615 3.48691,-0.04645 5.227,-0.15766z" fill="#379dfe"/><path d="M113.07026,124.93582c1.08237,0.19985 1.58525,0.69905 2.4709,0.7137c-0.16187,0.27868 -1.00898,1.36952 -1.25273,1.70681c-0.32695,2.49436 0.09727,6.71971 0.09932,9.42051c0.05552,2.84908 0.02329,5.72029 -0.12568,8.56659c-0.05347,1.02198 0.23877,4.22286 -0.55503,4.66828l-0.32651,-0.21538c-0.66182,-1.17656 -0.37354,-4.21289 -0.3772,-5.68996c-0.0249,-4.40542 -0.00879,-8.81099 0.04849,-13.21612c0.00498,-0.91853 -0.14795,-5.3474 0.01846,-5.95443z" fill="url(#color-11)"/><path d="M111.77168,150.73553c1.01821,0.57729 4.69746,0.10403 5.99927,0.14505c1.6522,0.05128 3.46655,0.23736 5.11479,0.13626c0.60088,-0.03663 1.62598,-0.82784 2.48115,-0.88352c0.62783,-0.23443 2.56318,0.58755 2.84326,0.51575c1.01133,-0.26081 4.98032,0.39707 5.54282,-0.35165c0.81504,-1.08425 0.51079,-3.9707 0.67603,-5.31458l0.01948,-0.15179c0.08218,1.67121 0.26177,5.08103 -0.46523,6.51399c-0.69668,0.03516 -4.01514,0.063 -4.51099,0.01319c-2.23608,-0.22125 -16.52871,0.44982 -17.68857,-0.38535z" fill="#0068d5"/><path d="M103.9563,112.55458c1.70859,-2.79062 6.67588,-4.17597 9.45879,-2.417c0.40752,0.19253 0.84375,0.38315 1.22607,0.617l0.49468,-0.32703c0.22969,0.3622 0.21694,0.34652 0.29429,0.7726l0.32212,0.20733c0.00732,0.577 1.04048,1.74168 1.41445,2.49538c0.121,0.29582 0.32915,0.85407 0.473,1.11194c0.652,2.5644 0.18882,4.91678 -1.44243,7.02212c-0.38892,0.4567 -0.24463,0.30696 -0.93926,0.54022c-1.16792,0.68659 -1.48037,0.93641 -2.19756,2.07531c-0.34966,-0.03956 -0.35698,-0.15487 -0.86938,-0.15634c-1.78857,0.23062 -2.96733,0.27751 -4.69717,-0.40733c-2.00273,-0.7811 -3.60586,-2.33685 -4.44683,-4.3156c-0.67617,-1.60293 -0.76348,-3.52674 -0.11938,-5.15033c0.31582,-0.93348 0.50361,-1.21861 1.02861,-2.06828z" fill="#379dfe"/><path d="M115.13584,110.42755c0.22969,0.3622 0.21694,0.34652 0.29429,0.7726l0.32212,0.20733c0.00732,0.577 1.04048,1.74168 1.41445,2.49538c0.121,0.29582 0.32915,0.85407 0.473,1.11194c0.652,2.5644 0.18882,4.91678 -1.44243,7.02212c-0.38892,0.4567 -0.24463,0.30696 -0.93926,0.54022c-1.16792,0.68659 -1.48037,0.93641 -2.19756,2.07531c-0.34966,-0.03956 -0.35698,-0.15487 -0.86938,-0.15634c-1.78857,0.23062 -2.96733,0.27751 -4.69717,-0.40733c-2.00273,-0.7811 -3.60586,-2.33685 -4.44683,-4.3156c-0.67617,-1.60293 -0.76348,-3.52674 -0.11938,-5.15033c0.19307,-0.19238 0.35625,-0.4274 0.52368,-0.6463c0.35405,0.41333 0.04775,3.32689 1.48638,5.08601c1.19399,1.46007 2.95049,2.34212 4.86328,2.59194c1.25742,0.15443 2.52466,-0.19487 3.52529,-0.97187c2.90493,-2.25949 2.98462,-4.82476 1.75781,-8.00718c-0.25444,-0.65993 -0.5896,-1.20791 -0.44297,-1.92088z" fill="url(#color-12)"/><path d="M103.9563,112.55458c1.70859,-2.79062 6.67588,-4.17597 9.45879,-2.417l0.00234,0.20278l0.72612,0.41275l0.02754,0.11736c-0.5959,0.14037 -0.34424,0.14505 -1.02935,-0.17773l-0.05596,0.16601c-0.81987,2.39297 -1.16338,1.24029 -2.85894,1.75575c-0.93735,0.28498 -2.51221,2.35985 -3.83057,1.83194c-0.27466,-0.08396 -1.22124,-1.14388 -1.33901,-1.43385c-0.88579,0.60762 -0.87188,2.22388 -0.94761,3.20821c-0.58301,-0.53993 0.36416,-2.7033 -0.15337,-3.66623z" fill="#54b1fe"/><path d="M108.12012,110.62901c0.80112,-0.08044 1.0812,-0.1707 1.64414,0.45363c0.17651,1.0526 -0.83994,1.73128 -1.57485,2.27912c-0.56675,0.02579 -0.9958,-0.02535 -1.46323,-0.33993c-0.69771,-1.17216 0.47153,-1.91458 1.39395,-2.39282z" fill="#baecfd"/></g></svg>