<?xml version="1.0" encoding="UTF-8"?>
<svg version="1.1" xmlns="http://www.w3.org/2000/svg" width="512" height="512">
<path d="M0 0 C21.52573098 11.46505023 43.70508372 28.21514548 54.94018555 50.29272461 C55.50479492 51.38133789 55.50479492 51.38133789 56.08081055 52.49194336 C60.823673 63.12026695 56.98473916 75.94979521 54.94018555 86.85522461 C52.7991682 98.30152487 51.19531961 108.88293547 52.56518555 120.54272461 C52.9827884 125.10155578 52.62087688 127.99762453 50.94018555 132.29272461 C50.85853077 133.7709576 50.79870135 135.2504534 50.75268555 136.73022461 C50.37389016 141.44412278 48.7553135 145.07772346 46.62768555 149.23022461 C43.20356157 155.92275148 41.55382894 162.45143029 40.35888672 169.85888672 C39.53242557 174.65539426 38.62706466 177.82827147 34.94018555 181.29272461 C32.69018555 182.10522461 32.69018555 182.10522461 30.94018555 182.29272461 C29.27963724 188.57908605 28.04709306 194.88679175 26.94018555 201.29272461 C27.55893555 201.56084961 28.17768555 201.82897461 28.81518555 202.10522461 C30.94018555 203.29272461 30.94018555 203.29272461 32.94018555 206.29272461 C33.23144437 212.87179709 31.35329469 219.6444168 30.12934875 226.0846405 C26.91825331 242.99876183 25.12235284 258.85349361 25.95849609 276.14257812 C25.94018555 278.29272461 25.94018555 278.29272461 24.94018555 280.29272461 C24.8873052 281.68817811 24.84792424 283.08415334 24.81518555 284.48022461 C24.39436652 289.27213163 22.91418407 292.60940924 20.69018555 296.85522461 C17.4894643 303.15122102 15.87622392 309.28147912 14.6003418 316.20678711 C14.29166924 317.81749336 14.29166924 317.81749336 13.97676086 319.46073914 C13.52784372 321.81418982 13.08395818 324.1686045 12.64447021 326.52383423 C12.04064466 329.75513035 11.42659974 332.98426656 10.80726051 336.21261883 C9.44839063 343.29908022 8.12551482 350.39143712 6.83628273 357.49090099 C6.16883689 361.163682 5.49216377 364.83418759 4.79248047 368.50097656 C1.65170249 384.99157831 -0.76754224 400.70072662 -0.08650208 417.54975891 C0.28577667 427.60716929 0.28577667 427.60716929 -3.05981445 432.29272461 C-8.68351149 436.65395904 -13.11376121 436.79607015 -20.05981445 436.29272461 C-24.63717458 435.6230349 -29.15491128 434.72698558 -33.68481445 433.79272461 C-35.47725586 433.43500977 -35.47725586 433.43500977 -37.3059082 433.07006836 C-40.22570095 432.48610981 -43.14344625 431.89351052 -46.05981445 431.29272461 C-45.70540283 432.02515381 -45.35099121 432.75758301 -44.98583984 433.51220703 C-44.52685303 434.48520752 -44.06786621 435.45820801 -43.5949707 436.46069336 C-43.13743408 437.41999756 -42.67989746 438.37930176 -42.20849609 439.36767578 C-40.48831406 443.74801606 -40.19401035 447.68049716 -41.05981445 452.29272461 C-43.46935219 457.38982366 -45.98157218 459.10259804 -51.05981445 461.29272461 C-53.67958157 461.92206858 -56.21616303 462.45444864 -58.86450195 462.89819336 C-59.58848175 463.02712479 -60.31246155 463.15605621 -61.05838013 463.28889465 C-63.34908341 463.69478273 -65.6417889 464.08769218 -67.93481445 464.48022461 C-69.49746539 464.7547575 -71.05996735 465.03013976 -72.62231445 465.30639648 C-76.43316236 465.97833889 -80.24585941 466.63865893 -84.05981445 467.29272461 C-84.36980092 471.05254807 -84.36980092 471.05254807 -83.08325195 473.15209961 C-80.63577686 478.271246 -81.28259896 485.37002203 -82.7121582 490.74584961 C-84.9238454 495.71977274 -88.30866538 498.72423799 -93.05981445 501.29272461 C-95.90563513 502.2413315 -97.65651178 502.41962098 -100.60603333 502.42415237 C-101.54370639 502.42799352 -102.48137945 502.43183466 -103.44746685 502.43579221 C-104.47945611 502.43492573 -105.51144537 502.43405924 -106.57470703 502.4331665 C-108.21696495 502.43762319 -108.21696495 502.43762319 -109.89239979 502.4421699 C-113.57972273 502.45087693 -117.26701328 502.45236683 -120.9543457 502.45385742 C-123.59028274 502.45848407 -126.2262168 502.46348771 -128.8621521 502.46890259 C-136.03549913 502.48248717 -143.20884058 502.48851043 -150.38219833 502.49291325 C-154.85893625 502.49567467 -159.335672 502.49991177 -163.81240845 502.50441742 C-176.20138921 502.51660876 -188.59036823 502.52690931 -200.97935486 502.53029251 C-201.77231463 502.53051208 -202.56527439 502.53073164 -203.38226324 502.53095786 C-204.17713863 502.53117614 -204.97201401 502.53139442 -205.79097652 502.53161931 C-207.40174802 502.53206278 -209.01251952 502.53250934 -210.62329102 502.53295898 C-211.42229234 502.53318041 -212.22129366 502.53340184 -213.04450715 502.53362998 C-226.00123469 502.53758095 -238.95790609 502.55504464 -251.91461194 502.57831851 C-265.20931954 502.60200736 -278.50399893 502.61449318 -291.79872799 502.61566043 C-299.26645401 502.61657842 -306.73410684 502.62236215 -314.20181274 502.64048004 C-320.55835341 502.65584759 -326.91479825 502.66102128 -333.27135396 502.65274194 C-336.51630672 502.64882386 -339.76102501 502.65143914 -343.00596237 502.66379929 C-346.51911789 502.67640075 -350.03177081 502.67070644 -353.54492188 502.66021729 C-354.57691113 502.66827369 -355.60890039 502.67633009 -356.67216206 502.68463063 C-357.60983512 502.67804079 -358.54750818 502.67145094 -359.51359558 502.66466141 C-360.73062809 502.66555704 -360.73062809 502.66555704 -361.97224712 502.66647077 C-364.62142429 502.19217719 -365.51790224 501.48253274 -367.05981445 499.29272461 C-367.05981445 497.97272461 -367.05981445 496.65272461 -367.05981445 495.29272461 C-373.32981445 495.29272461 -379.59981445 495.29272461 -386.05981445 495.29272461 C-386.38981445 496.94272461 -386.71981445 498.59272461 -387.05981445 500.29272461 C-391.57148366 503.30050408 -395.93805994 502.66111695 -401.24731445 502.66772461 C-402.26374023 502.6922168 -403.28016602 502.71670898 -404.32739258 502.74194336 C-411.68911135 502.77045873 -417.51776861 501.78964885 -422.8996582 496.47631836 C-423.26188477 495.90010742 -423.62411133 495.32389648 -423.99731445 494.73022461 C-424.37758789 494.15143555 -424.75786133 493.57264648 -425.1496582 492.97631836 C-428.08129973 487.55341065 -428.15581369 481.24906568 -427.05981445 475.29272461 C-424.92266078 468.48767781 -421.56996507 462.11607806 -418.43481445 455.73022461 C-417.55773102 453.90045733 -416.68250464 452.06979881 -415.80908203 450.23828125 C-413.64906024 445.72610433 -411.45870547 441.22952618 -409.25604248 436.73803711 C-408.16670544 434.51122966 -407.08635154 432.28044585 -406.01147461 430.04663086 C-398.54747144 414.53704543 -390.42802239 399.53726455 -381.55541992 384.78881836 C-380.28904281 382.67529574 -379.0439064 380.5524082 -377.8137207 378.41772461 C-363.59906928 354.0339171 -346.94873463 331.01367439 -329.38208008 308.95776367 C-327.57438465 306.68145592 -325.78328032 304.39232244 -323.99145508 302.10351562 C-318.65421943 295.28826161 -313.26247872 288.51772619 -307.84106445 281.76928711 C-306.1575322 279.67171542 -304.49290804 277.5641301 -302.84106445 275.44116211 C-300.95356962 273.0218731 -299.02813721 270.64659512 -297.05981445 268.29272461 C-296.42430664 267.52444336 -295.78879883 266.75616211 -295.1340332 265.96459961 C-286.31862865 256.2029087 -272.7681571 249.65316539 -259.5793457 248.95678711 C-249.7740829 248.76885979 -241.20899514 249.38743674 -232.05981445 253.29272461 C-230.66569336 253.87666992 -230.66569336 253.87666992 -229.2434082 254.47241211 C-216.4552761 260.62090237 -208.2478798 272.13708114 -200.05981445 283.29272461 C-202.01241918 271.28465545 -204.01860453 259.28603753 -206.05981445 247.29272461 C-206.22153137 246.34077209 -206.38324829 245.38881958 -206.54986572 244.40802002 C-207.55323451 238.5146559 -208.57435696 232.62472923 -209.61547852 226.73791504 C-209.94999426 224.83531646 -210.28000536 222.93191966 -210.60522461 221.02770996 C-212.66419773 209.00201348 -215.09072986 198.07146163 -220.68261719 187.11230469 C-222.09011182 184.23069583 -222.49983538 182.21657611 -222.68481445 179.04272461 C-222.86369379 175.53288593 -222.86369379 175.53288593 -224.05981445 172.29272461 C-224.07361553 170.75326082 -224.02511491 169.21305594 -223.9465332 167.67553711 C-223.41005106 152.17857653 -225.06108487 137.98111463 -228.1015625 122.83227539 C-230.74520247 109.25124856 -229.8201994 99.01991348 -222.05981445 87.29272461 C-204.32360513 62.07405197 -173.74323456 40.31165795 -143.1105957 34.72631836 C-135.87455715 33.69789291 -129.74592448 34.10947146 -123.05981445 37.29272461 C-116.81350684 42.18113926 -114.93885582 48.64462778 -113.68115234 56.19921875 C-113.57009659 56.85074921 -113.45904083 57.50227966 -113.34461975 58.17355347 C-113.10669482 59.57619361 -112.8727766 60.97951833 -112.64253426 62.38344002 C-112.27558626 64.61983874 -111.89762099 66.85413989 -111.51695251 69.08824158 C-110.70896255 73.84228259 -109.91488587 78.59859253 -109.12231445 83.35522461 C-108.20594303 88.85037666 -107.28360213 94.34442385 -106.34869194 99.83645439 C-105.98111416 102.01192932 -105.62309608 104.18882495 -105.26564026 106.36598206 C-103.37744596 117.63111632 -101.16139218 128.97810439 -95.80981445 139.16772461 C-93.27962087 144.36094693 -92.64569019 147.59851606 -93.05981445 153.29272461 C-92.73827393 153.89358887 -92.4167334 154.49445313 -92.08544922 155.11352539 C-90.70616167 158.04414206 -90.85083245 160.36743653 -90.8996582 163.59741211 C-90.91061523 164.82073242 -90.92157227 166.04405273 -90.93286133 167.30444336 C-90.95413086 168.57932617 -90.97540039 169.85420898 -90.99731445 171.16772461 C-91.03189766 173.68589438 -91.06200187 176.20413052 -91.0871582 178.72241211 C-91.10512451 179.8385791 -91.12309082 180.95474609 -91.14160156 182.10473633 C-91.06063977 185.26055453 -90.65566183 188.1964202 -90.05981445 191.29272461 C-87.76468348 181.67150263 -85.67290774 172.01850539 -83.87231445 162.29272461 C-83.66946838 161.20053116 -83.66946838 161.20053116 -83.46252441 160.08627319 C-81.07568214 146.94559488 -80.59208905 134.4844679 -81.04418945 121.12475586 C-81.17222508 116.34676748 -80.64115119 112.77916861 -79.05981445 108.29272461 C-78.97731445 107.09647461 -78.89481445 105.90022461 -78.80981445 104.66772461 C-78.40095917 100.77988254 -76.98078844 97.84389531 -75.24731445 94.35522461 C-72.86837779 89.44198742 -71.22554347 84.7090824 -70.0402832 79.36938477 C-69.87192963 78.63145502 -69.70357605 77.89352528 -69.53012085 77.13323402 C-67.97165906 70.1659232 -66.70719571 63.15742736 -65.5368042 56.11594772 C-65.17207602 53.92721896 -64.7989027 51.74006755 -64.42358398 49.5531311 C-63.35997238 43.35066435 -62.30616756 37.14660948 -61.26879883 30.93969727 C-60.62738616 27.10551787 -59.97272354 23.27379474 -59.30975342 19.4432869 C-59.06236782 17.99856738 -58.8199485 16.55298753 -58.58282471 15.10654831 C-57.24033215 6.9258314 -56.05529732 0.00242592 -50.55200195 -6.48461914 C-36.17496345 -16.79858155 -13.7665117 -7.02881302 0 0 Z " fill="#010201" transform="translate(441.059814453125,9.707275390625)"/>
<path d="M0 0 C7.20355145 5.20652728 12.37115969 12.12122196 17.66796875 19.15625 C20.47558123 22.8783774 23.38213141 26.51625868 26.3046875 30.1484375 C67.19630101 81.11517294 100.56195587 135.15685943 128.3046875 194.2734375 C128.80701904 195.33119385 129.30935059 196.3889502 129.8269043 197.47875977 C134.37427469 207.31758645 134.37427469 207.31758645 134.3671875 212.7109375 C132.81775843 214.81858711 131.91317438 215.61112028 129.31924301 216.08534235 C128.52665665 216.08507266 127.73407029 216.08480297 126.91746616 216.08452511 C126.00131017 216.09151485 125.08515418 216.0985046 124.14123589 216.10570616 C123.13327444 216.0981301 122.12531299 216.09055405 121.08680725 216.08274841 C119.48235966 216.08848526 119.48235966 216.08848526 117.84549898 216.094338 C114.24330413 216.10366102 110.64148982 216.09160751 107.03930664 216.07983398 C104.46410461 216.08230054 101.88890358 216.08613748 99.31370544 216.09124756 C93.75941847 216.10041249 88.20521408 216.09906896 82.65092659 216.09106255 C74.61596411 216.07984437 66.58111963 216.08885993 58.54616743 216.10362435 C45.50482003 216.12740816 32.46348717 216.14076367 19.42211914 216.14477539 C18.64132382 216.14502026 17.86052849 216.14526513 17.0560727 216.14551742 C8.34412387 216.14806354 -0.36782384 216.14863005 -9.07977295 216.14758301 C-12.23897298 216.14724999 -15.39817301 216.14696459 -18.55737305 216.14672852 C-19.33691611 216.14666573 -20.11645916 216.14660294 -20.91962474 216.14653825 C-33.9103933 216.14593379 -46.9010947 216.16079998 -59.89183527 216.18756157 C-67.90803243 216.20338549 -75.92401308 216.20560514 -83.94021261 216.19042755 C-90.07957256 216.17986182 -96.21874271 216.18963069 -102.35808372 216.20698547 C-104.88005766 216.21072538 -107.40205235 216.2075645 -109.92400742 216.19711494 C-113.35814132 216.1838304 -116.79135272 216.19488079 -120.22544861 216.21214294 C-121.23117934 216.20233617 -122.23691007 216.19252939 -123.27311748 216.18242544 C-128.59971989 216.17494996 -128.59971989 216.17494996 -133.22077274 218.55461216 C-134.78569686 220.74431792 -134.78569686 220.74431792 -135.6328125 223.7109375 C-141.9028125 223.7109375 -148.1728125 223.7109375 -154.6328125 223.7109375 C-155.6228125 221.7309375 -156.6128125 219.7509375 -157.6328125 217.7109375 C-162.11812427 216.21583358 -166.77513862 216.39104173 -171.47265625 216.28125 C-177.07493668 216.0482262 -177.07493668 216.0482262 -179.43945312 214.61865234 C-180.6328125 212.7109375 -180.6328125 212.7109375 -180.54394531 209.52856445 C-179.51651908 205.22367057 -177.98567007 201.5907971 -176.0546875 197.62890625 C-175.51056213 196.48427162 -175.51056213 196.48427162 -174.95544434 195.31651306 C-173.77431061 192.83901955 -172.57924519 190.36857472 -171.3828125 187.8984375 C-170.55650186 186.1777945 -169.73065915 184.45692671 -168.90527344 182.73583984 C-166.86413311 178.48823973 -164.80956137 174.24731346 -162.74902344 170.00909424 C-161.74080011 167.93327223 -160.73658116 165.85558734 -159.734375 163.77685547 C-152.09286043 147.96781193 -143.7004003 132.74489076 -134.6328125 117.7109375 C-134.11912109 116.85435547 -133.60542969 115.99777344 -133.07617188 115.11523438 C-127.49679015 105.82113979 -121.792006 96.63478292 -115.6328125 87.7109375 C-114.86880127 86.60081299 -114.86880127 86.60081299 -114.08935547 85.46826172 C-106.86750189 74.9972956 -99.51722144 64.69361656 -91.6328125 54.7109375 C-90.74173085 53.57457669 -89.85112061 52.43784608 -88.9609375 51.30078125 C-86.65333495 48.35579407 -84.33962329 45.41567497 -82.02392578 42.47705078 C-80.18239133 40.13909708 -78.34370408 37.79891513 -76.50561523 35.45825195 C-75.59048103 34.29346171 -74.67462792 33.12923592 -73.75805664 31.96557617 C-71.45112908 29.03533178 -69.15619475 26.0969907 -66.8828125 23.140625 C-49.0180394 -0.02269902 -49.0180394 -0.02269902 -38.6328125 -4.2890625 C-37.92769531 -4.60359375 -37.22257813 -4.918125 -36.49609375 -5.2421875 C-23.89505738 -10.21925752 -11.04948904 -7.05652727 0 0 Z " fill="#F7EDD0" transform="translate(209.6328125,281.2890625)"/>
<path d="M0 0 C1.28869 3.62551454 0.67372604 5.97851219 -0.375 9.625 C-3.48692215 20.47310246 -3.23991751 31.68180368 -3.25 42.875 C-3.25100708 43.6511264 -3.25201416 44.42725281 -3.25305176 45.22689819 C-3.24241352 57.36403131 -2.70611625 69.12135697 0 81 C0.26683594 82.17820312 0.53367187 83.35640625 0.80859375 84.5703125 C12.30507987 128.61462823 40.52168084 166.78563897 79.4375 190.484375 C87.13096771 194.97223116 95.021621 199.04666838 103 203 C103 203.33 103 203.66 103 204 C101.64494543 204.00219984 101.64494543 204.00219984 100.26251602 204.00444412 C78.29644969 204.04147204 56.33053816 204.1004333 34.36459732 204.18390274 C23.74208569 204.22373705 13.11964861 204.2561072 2.49707031 204.27099609 C-6.75998708 204.28398987 -16.01688073 204.31089621 -25.27384591 204.35461307 C-30.17681149 204.37727915 -35.07957473 204.39290761 -39.98259735 204.39188385 C-44.595558 204.39114027 -49.20807048 204.408969 -53.82091522 204.44116783 C-55.51562457 204.4497008 -57.21038399 204.45139383 -58.90510559 204.44580269 C-61.21637853 204.43919197 -63.52621326 204.45701058 -65.83734131 204.48101807 C-67.13153866 204.48470524 -68.42573601 204.48839241 -69.75915146 204.49219131 C-73.56065009 205.08784829 -74.72061217 205.95806112 -77 209 C-77.33 209.99 -77.66 210.98 -78 212 C-84.27 212 -90.54 212 -97 212 C-97.99 210.02 -98.98 208.04 -100 206 C-104.48531177 204.50489608 -109.14232612 204.68010423 -113.83984375 204.5703125 C-119.44212418 204.3372887 -119.44212418 204.3372887 -121.80664062 202.90771484 C-123 201 -123 201 -122.91113281 197.81762695 C-121.88370658 193.51273307 -120.35285757 189.8798596 -118.421875 185.91796875 C-117.87774963 184.77333412 -117.87774963 184.77333412 -117.32263184 183.60557556 C-116.14149811 181.12808205 -114.94643269 178.65763722 -113.75 176.1875 C-112.92368936 174.466857 -112.09784665 172.74598921 -111.27246094 171.02490234 C-109.23132061 166.77730223 -107.17674887 162.53637596 -105.11621094 158.29815674 C-104.10798761 156.22233473 -103.10376866 154.14464984 -102.1015625 152.06591797 C-94.46004793 136.25687443 -86.0675878 121.03395326 -77 106 C-76.48630859 105.14341797 -75.97261719 104.28683594 -75.44335938 103.40429688 C-69.86397765 94.11020229 -64.1591935 84.92384542 -58 76 C-57.23598877 74.88987549 -57.23598877 74.88987549 -56.45654297 73.75732422 C-49.23468939 63.2863581 -41.88440894 52.98267906 -34 43 C-33.10891835 41.86363919 -32.21830811 40.72690858 -31.328125 39.58984375 C-29.02052245 36.64485657 -26.70681079 33.70473747 -24.39111328 30.76611328 C-22.09125755 27.84628942 -19.79589393 24.92293925 -17.5 22 C-17.05358154 21.43200684 -16.60716309 20.86401367 -16.1472168 20.27880859 C-13.72885315 17.20183971 -11.3124479 14.12335445 -8.8984375 11.04296875 C-8.39248047 10.39779297 -7.88652344 9.75261719 -7.36523438 9.08789062 C-6.38943441 7.84352187 -5.41415388 6.59874557 -4.43945312 5.35351562 C-1.1124622 1.1124622 -1.1124622 1.1124622 0 0 Z " fill="#ECD7A3" transform="translate(152,293)"/>
<path d="M0 0 C12.30019924 1.36356494 24.4006223 3.42250891 36.5625 5.6875 C38.47548886 6.04024041 40.38857656 6.39244518 42.30175781 6.74414062 C45.24528039 7.28524626 48.18875129 7.82661159 51.13192749 8.36959839 C61.49836977 10.28130692 71.87362863 12.14307819 82.25 14 C83.9551678 14.30553639 85.66032755 14.61111771 87.36547852 14.91674805 C91.24354948 15.61174098 95.12173486 16.3060915 99 17 C98.69513672 17.75829102 98.39027344 18.51658203 98.07617188 19.29785156 C90.71372975 37.55707732 90.71372975 37.55707732 90 57 C91.5581385 58.9989564 92.73830915 59.86915457 95 61 C94.68955976 63.39611639 94.37671642 65.79187835 94.0625 68.1875 C93.97548828 68.86103516 93.88847656 69.53457031 93.79882812 70.22851562 C93.32174523 73.85081166 92.76987965 77.42803585 92 81 C90.906875 81.185625 89.81375 81.37125 88.6875 81.5625 C84.85621317 82.61847882 84.85621317 82.61847882 83.43359375 85.65625 C81.07458766 91.80260054 80.38606109 98.46593127 79.375 104.9375 C79.1570462 106.28333231 78.93830196 107.62903686 78.71875 108.97460938 C78.12705389 112.64714297 77.5559167 116.32189681 77 120 C76.88438721 120.75941895 76.76877441 121.51883789 76.6496582 122.30126953 C75.83277938 128.17339199 75.66338104 134.08265738 75.4375 140 C75.39431641 141.06089844 75.35113281 142.12179687 75.30664062 143.21484375 C75.20143999 145.80979287 75.09988066 148.40484238 75 151 C68.24014578 150.40532195 61.58774773 149.51967984 54.90234375 148.36328125 C53.49089584 148.12311531 53.49089584 148.12311531 52.05093384 147.87809753 C49.0124894 147.35985723 45.97497268 146.83640326 42.9375 146.3125 C40.83912839 145.95302542 38.74073958 145.59365119 36.64233398 145.234375 C19.40640323 142.27520537 2.19438154 139.19143017 -15 136 C-15.34192668 134.16824992 -15.67306214 132.33448463 -16 130.5 C-16.185625 129.4790625 -16.37125 128.458125 -16.5625 127.40625 C-17.49273243 120.16372604 -16.7983985 113.99568921 -15.24609375 106.9375 C-13.69923134 99.56243112 -12.28929011 92.18058213 -11.03515625 84.75 C-10.87429535 83.79878265 -10.71343445 82.84756531 -10.54769897 81.86752319 C-10.05014383 78.91209325 -9.55587922 75.95612976 -9.0625 73 C-8.36781706 68.84602792 -7.67141792 64.69235048 -6.97265625 60.5390625 C-6.80335602 59.53235504 -6.63405579 58.52564758 -6.45962524 57.48843384 C-5.49579201 51.79875398 -4.47921643 46.12424038 -3.37109375 40.4609375 C-0.71195814 26.77447739 0.67942142 13.95078653 0 0 Z " fill="#8DC05C" transform="translate(376,130)"/>
<path d="M0 0 C-0.06960938 1.216875 -0.13921875 2.43375 -0.2109375 3.6875 C-0.77822537 18.51657846 1.65333902 32.3092926 4.58830261 46.76824951 C6.91000882 58.35407266 8.75815807 70.02982992 10.69628906 81.68453979 C13.81273351 102.44621438 13.81273351 102.44621438 19.5625 122.5625 C19.97628906 123.67753906 20.39007813 124.79257812 20.81640625 125.94140625 C21.85896502 128.63554327 22.9246461 131.31884477 24 134 C23.08041504 134.16491943 22.16083008 134.32983887 21.21337891 134.49975586 C19.14661385 134.87042377 17.07986296 135.24117016 15.01313782 135.61206055 C10.82605925 136.36345686 6.6388494 137.11410874 2.45141602 137.86352539 C-6.72667309 139.50737388 -15.90266861 141.16174976 -25.07452393 142.84007263 C-29.61952969 143.67137327 -34.16524203 144.49877396 -38.71099854 145.32595825 C-40.94079498 145.73282474 -43.17024949 146.14156978 -45.39935303 146.55221558 C-48.54793591 147.13203818 -51.69764484 147.70534049 -54.84765625 148.27734375 C-55.7867131 148.45201172 -56.72576996 148.62667969 -57.69328308 148.80664062 C-62.16189013 149.61173118 -66.44002745 150.3636127 -71 150 C-72.83203125 148.55859375 -72.83203125 148.55859375 -74 146 C-74.35193644 142.99170855 -74.55307404 140.08189285 -74.6875 137.0625 C-75.81408912 120.0065634 -79.34731669 103.26336316 -82.44715881 86.4818573 C-83.57859015 80.34740887 -84.66876503 74.2074843 -85.71875 68.05859375 C-85.85081848 67.28958237 -85.98288696 66.52057098 -86.11895752 65.72825623 C-87.13524322 59.81038497 -87.13524322 59.81038497 -87.59069824 57.09017944 C-89.93136985 43.137224 -93.12473102 29.93040755 -99 17 C-92.41359003 15.48727532 -85.81700121 14.20692641 -79.16015625 13.046875 C-78.13177139 12.86593796 -77.10338654 12.68500092 -76.0438385 12.49858093 C-72.71707358 11.91371825 -69.38981576 11.33172008 -66.0625 10.75 C-62.61692861 10.14598116 -59.17143707 9.54150834 -55.72595215 8.93699646 C-53.42887856 8.53403693 -51.13175947 8.13133669 -48.83459473 7.72889709 C-41.97163089 6.52561444 -35.11149256 5.30775501 -28.25390625 4.07421875 C-25.93149743 3.65799624 -23.60904603 3.24201198 -21.28659058 2.8260498 C-19.85641459 2.56897309 -18.42649769 2.31045041 -16.99685669 2.05041504 C-15.04286504 1.69515966 -13.08786318 1.345474 -11.1328125 0.99609375 C-9.52237061 0.70496704 -9.52237061 0.70496704 -7.87939453 0.40795898 C-5.2040718 0.02891334 -2.69687439 -0.07931984 0 0 Z " fill="#B3DC86" transform="translate(334,173)"/>
<path d="M0 0 C9.25244379 0.56134527 18.26965421 1.96244998 27.375 3.625 C28.83440117 3.88727958 30.29387562 4.14915174 31.75341797 4.41064453 C36.50400054 5.26438632 41.25217273 6.13108333 46 7 C46.86326904 7.15782959 47.72653809 7.31565918 48.6159668 7.47827148 C60.41365341 9.63595094 72.20806786 11.81110185 84 14 C83.61328125 14.88558594 83.2265625 15.77117187 82.828125 16.68359375 C75.73895643 33.35479399 73.0502738 50.71088574 70.125 68.5 C69.43298796 72.67633537 68.73730642 76.85204592 68.0390625 81.02734375 C67.86751648 82.05476181 67.69597046 83.08217987 67.51922607 84.14073181 C66.47838193 90.32110672 65.36144829 96.48009444 64.1484375 102.62890625 C61.15488401 117.88003375 59.09891205 132.39782902 60 148 C51.89014531 147.65118905 43.8869306 146.50331835 35.875 145.25 C34.8430249 145.10530273 33.8110498 144.96060547 32.74780273 144.81152344 C31.29096069 144.57224121 31.29096069 144.57224121 29.8046875 144.328125 C28.92796387 144.1930957 28.05124023 144.05806641 27.14794922 143.91894531 C25 143 25 143 23.81030273 141.03076172 C22.67501506 136.78446429 21.93457549 132.51613215 21.23046875 128.1796875 C21.06903885 127.21660172 20.90760895 126.25351593 20.74128723 125.26124573 C20.21785043 122.13338556 19.70214516 119.00431787 19.1875 115.875 C18.47596648 111.57105919 17.76114953 107.26768035 17.04296875 102.96484375 C16.86748505 101.91214798 16.69200134 100.85945221 16.51119995 99.77485657 C15.37024093 93.00145153 14.06790209 86.28823419 12.65283203 79.56689453 C9.64885516 65.16712808 9.56873228 51.30244809 10.14770508 36.66601562 C10.21360918 33.77027176 10.21360918 33.77027176 8 31 C7.76171875 28.65234375 7.76171875 28.65234375 7.6875 25.9375 C7.30567568 20.59195947 5.76592428 16.88218417 3.2109375 12.22265625 C0.93918995 8.05290027 0 4.73248255 0 0 Z " fill="#B3DD86" transform="translate(365,282)"/>
<path d="M0 0 C0.0093457 0.70793701 0.01869141 1.41587402 0.02832031 2.14526367 C0.0834849 5.49326737 0.16681181 8.84007941 0.25 12.1875 C0.26417969 13.29931641 0.27835937 14.41113281 0.29296875 15.55664062 C0.57583718 25.6550434 2.42929822 35.18633269 4.4229126 45.06253052 C5.44293671 50.25462046 6.34506162 55.46718764 7.25390625 60.6796875 C7.44316681 61.75904068 7.63242737 62.83839386 7.8274231 63.95045471 C8.60324012 68.37738901 9.37582134 72.8048854 10.14819336 77.23242188 C14.27589761 105.44763481 14.27589761 105.44763481 24 132 C24 132.66 24 133.32 24 134 C19.89762916 134.82174187 15.7928255 135.63066018 11.6875 136.4375 C10.53958984 136.66759766 9.39167969 136.89769531 8.20898438 137.13476562 C1.14674186 138.51520396 -5.8187806 139.52003771 -13 140 C-13.53778076 138.87843506 -14.07556152 137.75687012 -14.62963867 136.60131836 C-24.49927458 116.04930349 -34.32376378 95.60093015 -46 76 C-46.98919442 74.30652265 -47.97747127 72.61250902 -48.96484375 70.91796875 C-58.59160804 54.51388651 -69.12175816 38.67344843 -80.35742188 23.32739258 C-80.82341797 22.68181396 -81.28941406 22.03623535 -81.76953125 21.37109375 C-82.17792236 20.81349365 -82.58631348 20.25589355 -83.00708008 19.68139648 C-84.11152938 17.81113773 -84.5133485 16.10566938 -85 14 C-84.32000443 13.88360168 -83.64000885 13.76720337 -82.93940735 13.64727783 C-76.42636076 12.5320443 -69.91364753 11.41488475 -63.40127277 10.29573441 C-60.05585396 9.72088998 -56.71032484 9.14670704 -53.36450195 8.57421875 C-49.48877828 7.91068205 -45.61341483 7.24509898 -41.73828125 6.578125 C-40.47380157 6.36063599 -39.2093219 6.14314697 -37.90652466 5.91906738 C-29.39862613 4.44474159 -20.91144142 2.88372491 -12.45124817 1.15509033 C-8.22620374 0.31511819 -4.33532036 -0.18575604 0 0 Z " fill="#8CBF5C" transform="translate(360,322)"/>
<path d="M0 0 C2.55295 2.53455036 5.07583462 5.08001539 7.55078125 7.69140625 C28.22807671 29.1876045 54.27843153 44.74827699 84 49 C83 59 83 59 82.74389648 61.19189453 C82.0368003 67.52501686 81.87935917 73.75634323 81.9375 80.125 C81.94201172 81.08148438 81.94652344 82.03796875 81.95117188 83.0234375 C81.96279983 85.34902758 81.97913898 87.6744776 82 90 C75.71503241 90.27211452 69.91457877 89.22587138 63.75 88.0625 C61.27495994 87.60687426 58.79967727 87.15256543 56.32421875 86.69921875 C55.632108 86.5718634 54.93999725 86.44450806 54.22691345 86.31329346 C47.5809408 85.09470545 40.92580414 83.93035188 34.26953125 82.76953125 C31.99316049 82.37168387 29.71679333 81.97381585 27.44042969 81.57592773 C24.02147163 80.97848488 20.60237361 80.38192103 17.18273926 79.7883606 C-6.37579293 75.69567478 -6.37579293 75.69567478 -17 73 C-14.40926137 65.05114283 -14.40926137 65.05114283 -13.03581238 61.52359009 C-10.35379303 54.62509794 -8.84733441 47.879472 -7.67578125 40.5859375 C-7.48404831 39.44967926 -7.29231537 38.31342102 -7.09477234 37.14273071 C-6.49087414 33.55504391 -5.90090463 29.96525738 -5.3125 26.375 C-4.71112499 22.74946492 -4.1067962 19.1244645 -3.49809265 15.50015259 C-3.12158231 13.25402001 -2.74971662 11.00710308 -2.38288879 8.7593689 C-2.13208809 7.25112045 -2.13208809 7.25112045 -1.8762207 5.71240234 C-1.7306221 4.82402679 -1.5850235 3.93565125 -1.43501282 3.02035522 C-1 1 -1 1 0 0 Z " fill="#B2DB85" transform="translate(396,42)"/>
<path d="M0 0 C0.19634033 1.07258057 0.39268066 2.14516113 0.5949707 3.25024414 C1.3373981 7.30418025 2.08144252 11.35781829 2.82592773 15.41137695 C3.14536594 17.15185839 3.46438983 18.89241593 3.78295898 20.63305664 C4.84305558 26.42435598 5.91525611 32.21326682 7 38 C7.13603638 38.73036469 7.27207275 39.46072937 7.41223145 40.21322632 C8.72362294 47.21078948 10.05549069 54.02726881 12.625 60.6875 C13.93085723 64.11834308 15.15125769 67.43096666 16 71 C2.6883951 73.75094952 -10.65152218 76.19942089 -24.0586853 78.4362793 C-39.54608148 81.02052779 -55.01957185 83.64506464 -70.43579102 86.62866211 C-71.88103149 86.90528687 -71.88103149 86.90528687 -73.35546875 87.1875 C-74.16653076 87.34605469 -74.97759277 87.50460938 -75.81323242 87.66796875 C-78 88 -78 88 -82 88 C-82.01981934 87.30028076 -82.03963867 86.60056152 -82.06005859 85.87963867 C-82.15647552 82.64860628 -82.26567275 79.41812033 -82.375 76.1875 C-82.4059375 75.08728516 -82.436875 73.98707031 -82.46875 72.85351562 C-82.69248101 66.53311453 -83.2816885 60.52585043 -84.58447266 54.33325195 C-85 52 -85 52 -85 48 C-84.01902344 47.92523438 -83.03804687 47.85046875 -82.02734375 47.7734375 C-71.80321066 46.83944084 -63.31388255 44.31637406 -54 40 C-52.86046875 39.49597656 -51.7209375 38.99195313 -50.546875 38.47265625 C-36.92545361 32.11288302 -24.76762648 23.21711518 -14.00390625 12.765625 C-12 11 -12 11 -10 11 C-9.5978125 10.12601563 -9.5978125 10.12601563 -9.1875 9.234375 C-7.98519009 6.97213399 -6.66174087 5.19423682 -5 3.25 C-4.484375 2.63640625 -3.96875 2.0228125 -3.4375 1.390625 C-2 0 -2 0 0 0 Z " fill="#8CBF5C" transform="translate(315,87)"/>
<path d="M0 0 C0.06993164 0.72251953 0.13986328 1.44503906 0.21191406 2.18945312 C4.4500568 45.33401872 11.57963699 88.79200394 37 125 C38.34312263 126.99366116 39.67197748 128.9962138 41 131 C38.81737249 133.18262751 34.3751748 133.10523738 31.36328125 133.62890625 C30.49108444 133.78286362 29.61888763 133.93682098 28.72026062 134.09544373 C26.86862891 134.42103021 25.01663128 134.74454125 23.16430664 135.06616211 C20.34073477 135.55758593 17.51898633 136.05861686 14.69726562 136.56054688 C12.89854032 136.8755876 11.09971515 137.19005884 9.30078125 137.50390625 C8.45993484 137.65388565 7.61908844 137.80386505 6.75276184 137.95838928 C2.46661575 138.69457357 -1.63364216 139.31645153 -6 139 C-7.83203125 137.55859375 -7.83203125 137.55859375 -9 135 C-9.35193644 131.99170855 -9.55307404 129.08189285 -9.6875 126.0625 C-10.81408912 109.0065634 -14.34731669 92.26336316 -17.44715881 75.4818573 C-18.57859015 69.34740887 -19.66876503 63.2074843 -20.71875 57.05859375 C-20.85081848 56.28958237 -20.98288696 55.52057098 -21.11895752 54.72825623 C-22.13524322 48.81038497 -22.13524322 48.81038497 -22.59069824 46.09017944 C-24.93136985 32.137224 -28.12473102 18.93040755 -34 6 C-27.05401388 4.39541216 -20.08765504 3.08237865 -13.0625 1.875 C-11.50305664 1.60236328 -11.50305664 1.60236328 -9.91210938 1.32421875 C-2.26051457 0 -2.26051457 0 0 0 Z " fill="#91D089" transform="translate(269,184)"/>
<path d="M0 0 C9.37579682 1.11843262 18.70030388 2.34437228 28 4 C27.34 4.33 26.68 4.66 26 5 C25.57087074 7.39676638 25.28430095 9.70520765 25.0625 12.125 C24.98459229 12.90053223 24.90668457 13.67606445 24.82641602 14.47509766 C24.64740602 16.27270609 24.47288357 18.07076452 24.30175781 19.86914062 C23.96357496 23.3779245 23.60323016 26.88412133 23.2421875 30.390625 C21.23859324 50.07801042 19.93422545 69.57631785 19.82577515 89.37145996 C19.81711245 90.88279101 19.80570381 92.39410953 19.79116821 93.90539551 C19.69898752 104.75803364 20.53847463 115.25019755 22 126 C22.21339518 127.71974891 22.42487381 129.43973906 22.6328125 131.16015625 C22.79523438 132.44792969 22.95765625 133.73570312 23.125 135.0625 C23.21136719 135.74892578 23.29773438 136.43535156 23.38671875 137.14257812 C23.59053633 138.76179559 23.79516239 140.38091126 24 142 C15.53175432 141.34196911 7.23304406 139.9175703 -1.125 138.4375 C-2.47650455 138.20084072 -3.82806674 137.96451031 -5.1796875 137.72851562 C-8.45370422 137.1555627 -11.72710426 136.57931595 -15 136 C-15.34192668 134.16824992 -15.67306214 132.33448463 -16 130.5 C-16.185625 129.4790625 -16.37125 128.458125 -16.5625 127.40625 C-17.49273243 120.16372604 -16.7983985 113.99568921 -15.24609375 106.9375 C-13.69923134 99.56243112 -12.28929011 92.18058213 -11.03515625 84.75 C-10.87429535 83.79878265 -10.71343445 82.84756531 -10.54769897 81.86752319 C-10.05014383 78.91209325 -9.55587922 75.95612976 -9.0625 73 C-8.36781706 68.84602792 -7.67141792 64.69235048 -6.97265625 60.5390625 C-6.80335602 59.53235504 -6.63405579 58.52564758 -6.45962524 57.48843384 C-5.49579201 51.79875398 -4.47921643 46.12424038 -3.37109375 40.4609375 C-0.71195814 26.77447739 0.67942142 13.95078653 0 0 Z " fill="#56B13A" transform="translate(376,130)"/>
<path d="M0 0 C21.61430299 -1.75646706 43.42429227 13.24980143 59.20703125 26.52734375 C81.53011343 46.29029623 81.53011343 46.29029623 82.265625 56.79296875 C82 60 82 60 81 61 C68.15485903 62.14179031 56.92423539 55.89169049 46 50 C44.96875 49.46503906 43.9375 48.93007813 42.875 48.37890625 C26.60163722 39.5125768 7.35590884 24.49228084 0 7 C-0.0777346 4.66796188 -0.08967728 2.33160941 0 0 Z " fill="#F4EACD" transform="translate(401,15)"/>
<path d="M0 0 C1.43666016 0.02707031 1.43666016 0.02707031 2.90234375 0.0546875 C3.97162109 0.08949219 3.97162109 0.08949219 5.0625 0.125 C6.47822613 5.27061997 5.35886541 7.73175851 2.91015625 12.30859375 C-0.71347432 17.83214056 -5.34157919 22.41762319 -9.9375 27.125 C-10.87529297 28.17300781 -10.87529297 28.17300781 -11.83203125 29.2421875 C-24.71077494 43.25472578 -48.48301391 58.89056491 -67.703125 60.42578125 C-70.80085077 60.4358388 -73.84926032 60.35584848 -76.9375 60.125 C-77.12868253 50.37469113 -70.49783446 43.15861154 -64.3515625 36.1953125 C-51.8996186 23.30517703 -37.20563998 13.42937223 -21.0625 5.75 C-20.36092773 5.41597168 -19.65935547 5.08194336 -18.93652344 4.73779297 C-12.72950325 1.87040347 -6.93099248 -0.17113562 0 0 Z " fill="#F4EACE" transform="translate(303.9375,59.875)"/>
<path d="M0 0 C5.66666667 5.66666667 11.33333333 11.33333333 17 17 C17.64324219 17.4434375 18.28648437 17.886875 18.94921875 18.34375 C20.88398337 21.39334181 19.39030483 25.02469357 18.6875 28.375 C15.94860456 43.41863683 16.04588686 58.01332107 19.34375 72.9453125 C20 76 20 76 20 79 C7.74537606 78.54528297 -5.33191084 76.88936305 -17 73 C-14.40926137 65.05114283 -14.40926137 65.05114283 -13.03581238 61.52359009 C-10.35379303 54.62509794 -8.84733441 47.879472 -7.67578125 40.5859375 C-7.48404831 39.44967926 -7.29231537 38.31342102 -7.09477234 37.14273071 C-6.49087414 33.55504391 -5.90090463 29.96525738 -5.3125 26.375 C-4.71112499 22.74946492 -4.1067962 19.1244645 -3.49809265 15.50015259 C-3.12158231 13.25402001 -2.74971662 11.00710308 -2.38288879 8.7593689 C-2.13208809 7.25112045 -2.13208809 7.25112045 -1.8762207 5.71240234 C-1.7306221 4.82402679 -1.5850235 3.93565125 -1.43501282 3.02035522 C-1 1 -1 1 0 0 Z " fill="#8FCD87" transform="translate(396,42)"/>
<path d="M0 0 C1.87403469 2.81105203 3.230717 5.62737347 4.61401367 8.69970703 C8.39579587 17.07058741 12.61426439 24.53576088 18 32 C18.53238281 32.75539062 19.06476563 33.51078125 19.61328125 34.2890625 C20.72993784 35.86810928 21.86248283 37.43591389 23 39 C13.62460119 41.29167276 4.21685959 43.13147289 -5.28735352 44.78979492 C-7.59160059 45.1925869 -9.89444221 45.60282697 -12.19726562 46.01367188 C-13.67440175 46.27387737 -15.15161261 46.53365905 -16.62890625 46.79296875 C-17.3111879 46.91480026 -17.99346954 47.03663177 -18.69642639 47.16215515 C-21.8794285 47.71276825 -24.75209797 48 -28 48 C-28.01981934 47.30028076 -28.03963867 46.60056152 -28.06005859 45.87963867 C-28.15647552 42.64860628 -28.26567275 39.41812033 -28.375 36.1875 C-28.4059375 35.08728516 -28.436875 33.98707031 -28.46875 32.85351562 C-28.69248101 26.53311453 -29.2816885 20.52585043 -30.58447266 14.33325195 C-31 12 -31 12 -31 8 C-30.01902344 7.92523438 -29.03804687 7.85046875 -28.02734375 7.7734375 C-17.80900078 6.83267688 -9.31358897 4.25534669 0 0 Z " fill="#56B13A" transform="translate(261,127)"/>
<path d="M0 0 C3.96 0.33 7.92 0.66 12 1 C11.97679687 2.16789062 11.95359375 3.33578125 11.9296875 4.5390625 C11.44461234 40.68451178 15.5521203 76.63518726 27 111 C27.31549805 111.95342285 27.63099609 112.9068457 27.95605469 113.88916016 C29.98499188 120.01899821 32.02881312 126.14372098 34.08300781 132.26513672 C35.39397323 136.17499683 36.69715753 140.08742649 38 144 C33.71 143.67 29.42 143.34 25 143 C23.5989868 139.49746699 22.70571521 137.10589554 22.11791992 133.54638672 C21.97388229 132.69193466 21.82984467 131.8374826 21.68144226 130.95713806 C21.532621 130.04057938 21.38379974 129.12402069 21.23046875 128.1796875 C21.06903885 127.21660172 20.90760895 126.25351593 20.74128723 125.26124573 C20.21785043 122.13338556 19.70214516 119.00431787 19.1875 115.875 C18.47596648 111.57105919 17.76114953 107.26768035 17.04296875 102.96484375 C16.86748505 101.91214798 16.69200134 100.85945221 16.51119995 99.77485657 C15.37024093 93.00145153 14.06790209 86.28823419 12.65283203 79.56689453 C9.64885516 65.16712808 9.56873228 51.30244809 10.14770508 36.66601562 C10.21360918 33.77027176 10.21360918 33.77027176 8 31 C7.76171875 28.65234375 7.76171875 28.65234375 7.6875 25.9375 C7.30567568 20.59195947 5.76592428 16.88218417 3.2109375 12.22265625 C0.93918995 8.05290027 0 4.73248255 0 0 Z " fill="#8FCD87" transform="translate(365,282)"/>
<path d="M0 0 C1.72157208 13.66045022 3.42037944 27.32234433 5 41 C2.28874133 37.69416706 -0.16701462 34.33133721 -2.5 30.75 C-4.98489465 26.97333592 -7.51720091 23.25168943 -10.15234375 19.578125 C-10.69503906 18.82047852 -11.23773438 18.06283203 -11.796875 17.28222656 C-12.8764177 15.78050556 -13.96093036 14.28234276 -15.05078125 12.78808594 C-15.54835938 12.09489258 -16.0459375 11.40169922 -16.55859375 10.6875 C-17.00517334 10.07261719 -17.45175293 9.45773437 -17.91186523 8.82421875 C-19.0654902 6.89020804 -19.56812063 5.19976224 -20 3 C-17.22970414 2.49685437 -14.4588348 1.99736162 -11.6875 1.5 C-10.90181641 1.35691406 -10.11613281 1.21382813 -9.30664062 1.06640625 C-8.54931641 0.93105469 -7.79199219 0.79570312 -7.01171875 0.65625 C-6.31522217 0.53056641 -5.61872559 0.40488281 -4.90112305 0.27539062 C-3 0 -3 0 0 0 Z " fill="#55AE39" transform="translate(295,333)"/>
<path d="M0 0 C2.5 1.5625 2.5 1.5625 4 4 C4 7.77684879 3.78395245 10.03513544 1.375 13 C-2.11581787 14.46981805 -4.39148956 13.98413921 -8 13 C-10.34572071 10.88128452 -10.89543972 9.5974873 -11.4375 6.5 C-11 4 -11 4 -9.4375 1.6875 C-6.07228821 -0.64226201 -4.01027077 -0.57289582 0 0 Z " fill="#F7ECCE" transform="translate(87,465)"/>
<path d="M0 0 C2.375 1.625 2.375 1.625 4 4 C4.61195145 7.6717087 4.48706506 9.28813568 2.375 12.375 C-0.71186432 14.48706506 -2.3282913 14.61195145 -6 14 C-8.375 12.375 -8.375 12.375 -10 10 C-10.61195145 6.3282913 -10.48706506 4.71186432 -8.375 1.625 C-5.28813568 -0.48706506 -3.6717087 -0.61195145 0 0 Z " fill="#F7EDCF" transform="translate(144,442)"/>
<path d="M0 0 C2.5 1.5625 2.5 1.5625 4 4 C4 7.77684879 3.78395245 10.03513544 1.375 13 C-2.07663304 14.45331917 -4.42809484 13.92604949 -8 13 C-10.46324069 9.30513897 -10.38991688 7.36706908 -10 3 C-7.7773391 -1.05308751 -4.20075589 -0.5158823 0 0 Z " fill="#F7EDCF" transform="translate(114,398)"/>
<path d="M0 0 C1.9375 1 1.9375 1 3 3 C3.45982357 5.75894141 3.51068558 8.24574069 3 11 C0.82200662 13.68060724 -0.61001305 13.93500217 -4 14.5 C-7 14 -7 14 -9.375 11.8125 C-11.14232156 8.75367423 -11.70698088 7.44653179 -11 4 C-7.99829475 -0.44252378 -5.15110438 -0.6555951 0 0 Z " fill="#EDD8A5" transform="translate(220,361)"/>
<path d="M0 0 C3.4375 1 3.4375 1 5.375 2.75 C6.67120853 5.49491218 6.96237013 7.00074212 6.4375 10 C4.875 12.3125 4.875 12.3125 2.4375 14 C-1.02480815 14.42519574 -3.3972167 14.63902633 -6.5 12.9375 C-8.20152633 9.8347167 -7.98769574 7.46230815 -7.5625 4 C-5.30132583 0.38212133 -4.292718 0 0 0 Z " fill="#EDD8A5" transform="translate(251.5625,449)"/>
<path d="M0 0 C2.375 1.5625 2.375 1.5625 4 4 C4.5 7.5625 4.5 7.5625 4 11 C1.80827201 13.61321414 0.35345908 13.94109015 -3 14.5 C-6 14 -6 14 -8.375 11.8125 C-10.14232156 8.75367423 -10.70698088 7.44653179 -10 4 C-7.16979976 -0.02759265 -4.82432618 -0.80405436 0 0 Z " fill="#EDD8A5" transform="translate(182,317)"/>
<path d="M0 0 C4.41562483 -0.43290439 6.34721796 -0.50000327 9.9375 2.25 C12 5 12 5 12 9 C11.030625 9.12375 10.06125 9.2475 9.0625 9.375 C8.051875 9.58125 7.04125 9.7875 6 10 C5.67 10.66 5.34 11.32 5 12 C4.34 11.67 3.68 11.34 3 11 C3 10.01 3 9.02 3 8 C2.319375 7.360625 1.63875 6.72125 0.9375 6.0625 C0.298125 5.381875 -0.34125 4.70125 -1 4 C-0.75 1.75 -0.75 1.75 0 0 Z " fill="#EDD9A8" transform="translate(432,47)"/>
<path d="M0 0 C2 2 2 2 2.4375 4.375 C2 7 2 7 -0.0625 9.3125 C-3.62235307 11.35752198 -5.95853394 11.31697773 -10 11 C-10.66 9.35 -11.32 7.7 -12 6 C-8.04 4.02 -4.08 2.04 0 0 Z " fill="#E9D6A4" transform="translate(282,66)"/>
<path d="M0 0 C8.03141361 -0.30890052 8.03141361 -0.30890052 11 2 C12.25 4.625 12.25 4.625 13 7 C11 9 11 9 7.6875 9.4375 C4 9 4 9 1 6.75 C-1 4 -1 4 -0.8125 1.6875 C-0.4103125 0.8521875 -0.4103125 0.8521875 0 0 Z " fill="#EAD6A4" transform="translate(469,61)"/>
<path d="M0 0 C-0.48 5.4 -0.48 5.4 -2.625 7.875 C-5.83105694 9.39365855 -8.50045311 9.20189694 -12 9 C-12.8125 7.3125 -12.8125 7.3125 -13 5 C-9.15306095 -0.46017156 -6.19783697 -0.52524042 0 0 Z " fill="#EDD8A5" transform="translate(249,104)"/>
<path d="M0 0 C3.66172475 0.62678171 6.8818995 1.64451846 10.3125 3.0625 C11.19550781 3.42472656 12.07851563 3.78695313 12.98828125 4.16015625 C13.65214844 4.43730469 14.31601562 4.71445312 15 5 C14.34 6.32 13.68 7.64 13 9 C8.37952789 9.32235852 5.61222353 9.01018628 2 6 C0.6875 2.8125 0.6875 2.8125 0 0 Z " fill="#E6D2A1" transform="translate(413,16)"/>
</svg>
